<?xml version="1.0" standalone="no"?>
 <!DOCTYPE svg PUBLIC "-//W3C//DTD SVG 1.1//EN" 
 "http://www.w3.org/Graphics/SVG/1.1/DTD/svg11.dtd"> 
<svg
  xmlns:svg="http://www.w3.org/2000/svg"
  xmlns="http://www.w3.org/2000/svg"
  xmlns:xlink="http://www.w3.org/1999/xlink"
  version="1.1"
  width="22.0980mm" height="40.0812mm" viewBox="0.0000 0.0000 22.0980 40.0812">
<title>SVG Image created as mikrofonkopf-unten.svg date 2026/08/30 17:29:27 </title>
  <desc>Image generated by PCBNEW </desc>
<g style="fill:#000000; fill-opacity:1.0000;stroke:#000000; stroke-opacity:1.0000;
stroke-linecap:round; stroke-linejoin:round;"
 transform="translate(0 0) scale(1 1)">
</g>
<g style="fill:#000000; fill-opacity:0.0; 
stroke:#000000; stroke-width:0.0000; stroke-opacity:1; 
stroke-linecap:round; stroke-linejoin:round;">
</g>
<g style="fill:#000000; fill-opacity:0.0; 
stroke:#000000; stroke-width:0.0212; stroke-opacity:1; 
stroke-linecap:round; stroke-linejoin:round;">
</g>
<g style="fill:#000000; fill-opacity:0.0; 
stroke:#000000; stroke-width:0.1500; stroke-opacity:1; 
stroke-linecap:round; stroke-linejoin:round;">
<path d="M-97.8520 -3.8688
L10.1480 -3.8688
L10.1480 28.1312
L-97.8520 28.1312
L-97.8520 -3.8688
" />
</g>
<g style="fill:#000000; fill-opacity:0.0; 
stroke:#000000; stroke-width:0.0212; stroke-opacity:1; 
stroke-linecap:round; stroke-linejoin:round;">
</g>
<g style="fill:#000000; fill-opacity:0.0; 
stroke:#000000; stroke-width:0.1500; stroke-opacity:1; 
stroke-linecap:round; stroke-linejoin:round;">
<path d="M10.0500 10.0500
L12.1480 10.0500
L12.1480 30.1312
L10.0500 30.1312
L10.0500 10.0500
" />
</g>
<g style="fill:#000000; fill-opacity:0.0; 
stroke:#000000; stroke-width:0.0212; stroke-opacity:1; 
stroke-linecap:round; stroke-linejoin:round;">
</g>
<g style="fill:#000000; fill-opacity:0.0; 
stroke:#000000; stroke-width:0.1500; stroke-opacity:1; 
stroke-linecap:round; stroke-linejoin:round;">
<path d="M12.0500 12.0500
L10.1480 12.0500
L10.1480 28.1312
L12.0500 28.1312
L12.0500 12.0500
" />
</g>
<g style="fill:#000000; fill-opacity:0.0; 
stroke:#000000; stroke-width:0.0212; stroke-opacity:1; 
stroke-linecap:round; stroke-linejoin:round;">
</g>
<g style="fill:#000000; fill-opacity:0.0; 
stroke:#000000; stroke-width:0.1500; stroke-opacity:1; 
stroke-linecap:round; stroke-linejoin:round;">
<path d="M60.0500 12.0500
L60.0500 10.0500
" />
</g>
<g style="fill:#000000; fill-opacity:0.0; 
stroke:#000000; stroke-width:0.0212; stroke-opacity:1; 
stroke-linecap:round; stroke-linejoin:round;">
</g>
<g style="fill:#000000; fill-opacity:0.0; 
stroke:#000000; stroke-width:0.1500; stroke-opacity:1; 
stroke-linecap:round; stroke-linejoin:round;">
<text x="35.0500" y="11.7000"
textLength="1.4281" font-size="1.7333" lengthAdjust="spacingAndGlyphs"
text-anchor="start" opacity="0">1</text>
<g class="stroked-text"><desc>1</desc>
<path d="M36.1392 11.6436
L35.3963 11.6436
" />
<path d="M35.7677 11.6436
L35.7677 10.3436
" />
<path d="M35.7677 10.3436
L35.6439 10.5293
" />
<path d="M35.6439 10.5293
L35.5201 10.6531
" />
<path d="M35.5201 10.6531
L35.3963 10.7150
" />
</g></g>
<g style="fill:#000000; fill-opacity:0.0; 
stroke:#000000; stroke-width:0.0212; stroke-opacity:1; 
stroke-linecap:round; stroke-linejoin:round;">
</g>
<g style="fill:#000000; fill-opacity:0.0; 
stroke:#000000; stroke-width:0.1500; stroke-opacity:1; 
stroke-linecap:round; stroke-linejoin:round;">
<path d="M60.0500 28.1312
L60.0500 30.1312
" />
</g>
<g style="fill:#000000; fill-opacity:0.0; 
stroke:#000000; stroke-width:0.0212; stroke-opacity:1; 
stroke-linecap:round; stroke-linejoin:round;">
</g>
<g style="fill:#000000; fill-opacity:0.0; 
stroke:#000000; stroke-width:0.1500; stroke-opacity:1; 
stroke-linecap:round; stroke-linejoin:round;">
<text x="35.0500" y="29.7812"
textLength="1.4281" font-size="1.7333" lengthAdjust="spacingAndGlyphs"
text-anchor="start" opacity="0">1</text>
<g class="stroked-text"><desc>1</desc>
<path d="M36.1392 29.7248
L35.3963 29.7248
" />
<path d="M35.7677 29.7248
L35.7677 28.4248
" />
<path d="M35.7677 28.4248
L35.6439 28.6105
" />
<path d="M35.6439 28.6105
L35.5201 28.7343
" />
<path d="M35.5201 28.7343
L35.3963 28.7962
" />
</g></g>
<g style="fill:#000000; fill-opacity:0.0; 
stroke:#000000; stroke-width:0.0212; stroke-opacity:1; 
stroke-linecap:round; stroke-linejoin:round;">
</g>
<g style="fill:#000000; fill-opacity:0.0; 
stroke:#000000; stroke-width:0.1500; stroke-opacity:1; 
stroke-linecap:round; stroke-linejoin:round;">
<path d="M10.0500 60.0500
L12.0500 60.0500
" />
</g>
<g style="fill:#000000; fill-opacity:0.0; 
stroke:#000000; stroke-width:0.0212; stroke-opacity:1; 
stroke-linecap:round; stroke-linejoin:round;">
</g>
<g style="fill:#000000; fill-opacity:0.0; 
stroke:#000000; stroke-width:0.1500; stroke-opacity:1; 
stroke-linecap:round; stroke-linejoin:round;">
<text x="11.0500" y="35.7000"
textLength="1.3043" font-size="1.7333" lengthAdjust="spacingAndGlyphs"
text-anchor="middle" opacity="0">A</text>
<g class="stroked-text"><desc>A</desc>
<path d="M10.7405 35.2722
L11.3595 35.2722
" />
<path d="M10.6167 35.6436
L11.0500 34.3436
" />
<path d="M11.0500 34.3436
L11.4833 35.6436
" />
</g></g>
<g style="fill:#000000; fill-opacity:0.0; 
stroke:#000000; stroke-width:0.0212; stroke-opacity:1; 
stroke-linecap:round; stroke-linejoin:round;">
</g>
<g style="fill:#000000; fill-opacity:0.0; 
stroke:#000000; stroke-width:0.1500; stroke-opacity:1; 
stroke-linecap:round; stroke-linejoin:round;">
<path d="M12.1480 60.0500
L10.1480 60.0500
" />
</g>
<g style="fill:#000000; fill-opacity:0.0; 
stroke:#000000; stroke-width:0.0212; stroke-opacity:1; 
stroke-linecap:round; stroke-linejoin:round;">
</g>
<g style="fill:#000000; fill-opacity:0.0; 
stroke:#000000; stroke-width:0.1500; stroke-opacity:1; 
stroke-linecap:round; stroke-linejoin:round;">
<text x="11.1480" y="35.7000"
textLength="1.3043" font-size="1.7333" lengthAdjust="spacingAndGlyphs"
text-anchor="middle" opacity="0">A</text>
<g class="stroked-text"><desc>A</desc>
<path d="M10.8385 35.2722
L11.4575 35.2722
" />
<path d="M10.7147 35.6436
L11.1480 34.3436
" />
<path d="M11.1480 34.3436
L11.5813 35.6436
" />
</g></g>
<g style="fill:#000000; fill-opacity:0.0; 
stroke:#000000; stroke-width:0.0212; stroke-opacity:1; 
stroke-linecap:round; stroke-linejoin:round;">
</g>
<g style="fill:#000000; fill-opacity:0.0; 
stroke:#000000; stroke-width:0.1500; stroke-opacity:1; 
stroke-linecap:round; stroke-linejoin:round;">
<text x="-74.8520" y="23.9812"
textLength="7.0071" font-size="2.0000" lengthAdjust="spacingAndGlyphs"
text-anchor="start" opacity="0">Date: </text>
<g class="stroked-text"><desc>Date: </desc>
<path d="M-74.3962 23.9173
L-74.3962 22.4173
" />
<path d="M-74.3962 22.4173
L-74.0390 22.4173
" />
<path d="M-74.0390 22.4173
L-73.8247 22.4888
" />
<path d="M-73.8247 22.4888
L-73.6819 22.6316
" />
<path d="M-73.6819 22.6316
L-73.6105 22.7745
" />
<path d="M-73.6105 22.7745
L-73.5390 23.0602
" />
<path d="M-73.5390 23.0602
L-73.5390 23.2745
" />
<path d="M-73.5390 23.2745
L-73.6105 23.5602
" />
<path d="M-73.6105 23.5602
L-73.6819 23.7030
" />
<path d="M-73.6819 23.7030
L-73.8247 23.8459
" />
<path d="M-73.8247 23.8459
L-74.0390 23.9173
" />
<path d="M-74.0390 23.9173
L-74.3962 23.9173
" />
<path d="M-72.2533 23.9173
L-72.2533 23.1316
" />
<path d="M-72.2533 23.1316
L-72.3247 22.9888
" />
<path d="M-72.3247 22.9888
L-72.4676 22.9173
" />
<path d="M-72.4676 22.9173
L-72.7533 22.9173
" />
<path d="M-72.7533 22.9173
L-72.8962 22.9888
" />
<path d="M-72.2533 23.8459
L-72.3962 23.9173
" />
<path d="M-72.3962 23.9173
L-72.7533 23.9173
" />
<path d="M-72.7533 23.9173
L-72.8962 23.8459
" />
<path d="M-72.8962 23.8459
L-72.9676 23.7030
" />
<path d="M-72.9676 23.7030
L-72.9676 23.5602
" />
<path d="M-72.9676 23.5602
L-72.8962 23.4173
" />
<path d="M-72.8962 23.4173
L-72.7533 23.3459
" />
<path d="M-72.7533 23.3459
L-72.3962 23.3459
" />
<path d="M-72.3962 23.3459
L-72.2533 23.2745
" />
<path d="M-71.7533 22.9173
L-71.1819 22.9173
" />
<path d="M-71.5390 22.4173
L-71.5390 23.7030
" />
<path d="M-71.5390 23.7030
L-71.4676 23.8459
" />
<path d="M-71.4676 23.8459
L-71.3247 23.9173
" />
<path d="M-71.3247 23.9173
L-71.1819 23.9173
" />
<path d="M-70.1105 23.8459
L-70.2533 23.9173
" />
<path d="M-70.2533 23.9173
L-70.5390 23.9173
" />
<path d="M-70.5390 23.9173
L-70.6819 23.8459
" />
<path d="M-70.6819 23.8459
L-70.7533 23.7030
" />
<path d="M-70.7533 23.7030
L-70.7533 23.1316
" />
<path d="M-70.7533 23.1316
L-70.6819 22.9888
" />
<path d="M-70.6819 22.9888
L-70.5390 22.9173
" />
<path d="M-70.5390 22.9173
L-70.2533 22.9173
" />
<path d="M-70.2533 22.9173
L-70.1105 22.9888
" />
<path d="M-70.1105 22.9888
L-70.0390 23.1316
" />
<path d="M-70.0390 23.1316
L-70.0390 23.2745
" />
<path d="M-70.0390 23.2745
L-70.7533 23.4173
" />
<path d="M-69.3962 23.7745
L-69.3247 23.8459
" />
<path d="M-69.3247 23.8459
L-69.3962 23.9173
" />
<path d="M-69.3962 23.9173
L-69.4676 23.8459
" />
<path d="M-69.4676 23.8459
L-69.3962 23.7745
" />
<path d="M-69.3962 23.7745
L-69.3962 23.9173
" />
<path d="M-69.3962 22.9888
L-69.3247 23.0602
" />
<path d="M-69.3247 23.0602
L-69.3962 23.1316
" />
<path d="M-69.3962 23.1316
L-69.4676 23.0602
" />
<path d="M-69.4676 23.0602
L-69.3962 22.9888
" />
<path d="M-69.3962 22.9888
L-69.3962 23.1316
" />
</g></g>
<g style="fill:#000000; fill-opacity:0.0; 
stroke:#000000; stroke-width:0.0212; stroke-opacity:1; 
stroke-linecap:round; stroke-linejoin:round;">
</g>
<g style="fill:#000000; fill-opacity:0.0; 
stroke:#000000; stroke-width:0.1500; stroke-opacity:1; 
stroke-linecap:round; stroke-linejoin:round;">
<path d="M-97.8520 24.6312
L10.1480 24.6312
" />
</g>
<g style="fill:#000000; fill-opacity:0.0; 
stroke:#000000; stroke-width:0.0212; stroke-opacity:1; 
stroke-linecap:round; stroke-linejoin:round;">
</g>
<g style="fill:#000000; fill-opacity:0.0; 
stroke:#000000; stroke-width:0.1500; stroke-opacity:1; 
stroke-linecap:round; stroke-linejoin:round;">
<text x="-96.8520" y="26.7812"
textLength="52.0786" font-size="2.0000" lengthAdjust="spacingAndGlyphs"
text-anchor="start" opacity="0">KiCad E.D.A.  kicad-cli 7.0.11+dfsg-1build4</text>
<g class="stroked-text"><desc>KiCad E.D.A.  kicad-cli 7.0.11+dfsg-1build4</desc>
<path d="M-96.3962 26.7173
L-96.3962 25.2173
" />
<path d="M-95.5390 26.7173
L-96.1819 25.8602
" />
<path d="M-95.5390 25.2173
L-96.3962 26.0745
" />
<path d="M-94.8962 26.7173
L-94.8962 25.7173
" />
<path d="M-94.8962 25.2173
L-94.9676 25.2888
" />
<path d="M-94.9676 25.2888
L-94.8962 25.3602
" />
<path d="M-94.8962 25.3602
L-94.8247 25.2888
" />
<path d="M-94.8247 25.2888
L-94.8962 25.2173
" />
<path d="M-94.8962 25.2173
L-94.8962 25.3602
" />
<path d="M-93.3247 26.5745
L-93.3962 26.6459
" />
<path d="M-93.3962 26.6459
L-93.6105 26.7173
" />
<path d="M-93.6105 26.7173
L-93.7533 26.7173
" />
<path d="M-93.7533 26.7173
L-93.9676 26.6459
" />
<path d="M-93.9676 26.6459
L-94.1105 26.5030
" />
<path d="M-94.1105 26.5030
L-94.1819 26.3602
" />
<path d="M-94.1819 26.3602
L-94.2533 26.0745
" />
<path d="M-94.2533 26.0745
L-94.2533 25.8602
" />
<path d="M-94.2533 25.8602
L-94.1819 25.5745
" />
<path d="M-94.1819 25.5745
L-94.1105 25.4316
" />
<path d="M-94.1105 25.4316
L-93.9676 25.2888
" />
<path d="M-93.9676 25.2888
L-93.7533 25.2173
" />
<path d="M-93.7533 25.2173
L-93.6105 25.2173
" />
<path d="M-93.6105 25.2173
L-93.3962 25.2888
" />
<path d="M-93.3962 25.2888
L-93.3247 25.3602
" />
<path d="M-92.0390 26.7173
L-92.0390 25.9316
" />
<path d="M-92.0390 25.9316
L-92.1105 25.7888
" />
<path d="M-92.1105 25.7888
L-92.2533 25.7173
" />
<path d="M-92.2533 25.7173
L-92.5390 25.7173
" />
<path d="M-92.5390 25.7173
L-92.6819 25.7888
" />
<path d="M-92.0390 26.6459
L-92.1819 26.7173
" />
<path d="M-92.1819 26.7173
L-92.5390 26.7173
" />
<path d="M-92.5390 26.7173
L-92.6819 26.6459
" />
<path d="M-92.6819 26.6459
L-92.7533 26.5030
" />
<path d="M-92.7533 26.5030
L-92.7533 26.3602
" />
<path d="M-92.7533 26.3602
L-92.6819 26.2173
" />
<path d="M-92.6819 26.2173
L-92.5390 26.1459
" />
<path d="M-92.5390 26.1459
L-92.1819 26.1459
" />
<path d="M-92.1819 26.1459
L-92.0390 26.0745
" />
<path d="M-90.6819 26.7173
L-90.6819 25.2173
" />
<path d="M-90.6819 26.6459
L-90.8247 26.7173
" />
<path d="M-90.8247 26.7173
L-91.1105 26.7173
" />
<path d="M-91.1105 26.7173
L-91.2533 26.6459
" />
<path d="M-91.2533 26.6459
L-91.3247 26.5745
" />
<path d="M-91.3247 26.5745
L-91.3962 26.4316
" />
<path d="M-91.3962 26.4316
L-91.3962 26.0030
" />
<path d="M-91.3962 26.0030
L-91.3247 25.8602
" />
<path d="M-91.3247 25.8602
L-91.2533 25.7888
" />
<path d="M-91.2533 25.7888
L-91.1105 25.7173
" />
<path d="M-91.1105 25.7173
L-90.8247 25.7173
" />
<path d="M-90.8247 25.7173
L-90.6819 25.7888
" />
<path d="M-88.8247 25.9316
L-88.3247 25.9316
" />
<path d="M-88.1105 26.7173
L-88.8247 26.7173
" />
<path d="M-88.8247 26.7173
L-88.8247 25.2173
" />
<path d="M-88.8247 25.2173
L-88.1105 25.2173
" />
<path d="M-87.4676 26.5745
L-87.3962 26.6459
" />
<path d="M-87.3962 26.6459
L-87.4676 26.7173
" />
<path d="M-87.4676 26.7173
L-87.5390 26.6459
" />
<path d="M-87.5390 26.6459
L-87.4676 26.5745
" />
<path d="M-87.4676 26.5745
L-87.4676 26.7173
" />
<path d="M-86.7533 26.7173
L-86.7533 25.2173
" />
<path d="M-86.7533 25.2173
L-86.3962 25.2173
" />
<path d="M-86.3962 25.2173
L-86.1819 25.2888
" />
<path d="M-86.1819 25.2888
L-86.0390 25.4316
" />
<path d="M-86.0390 25.4316
L-85.9676 25.5745
" />
<path d="M-85.9676 25.5745
L-85.8962 25.8602
" />
<path d="M-85.8962 25.8602
L-85.8962 26.0745
" />
<path d="M-85.8962 26.0745
L-85.9676 26.3602
" />
<path d="M-85.9676 26.3602
L-86.0390 26.5030
" />
<path d="M-86.0390 26.5030
L-86.1819 26.6459
" />
<path d="M-86.1819 26.6459
L-86.3962 26.7173
" />
<path d="M-86.3962 26.7173
L-86.7533 26.7173
" />
<path d="M-85.2533 26.5745
L-85.1819 26.6459
" />
<path d="M-85.1819 26.6459
L-85.2533 26.7173
" />
<path d="M-85.2533 26.7173
L-85.3247 26.6459
" />
<path d="M-85.3247 26.6459
L-85.2533 26.5745
" />
<path d="M-85.2533 26.5745
L-85.2533 26.7173
" />
<path d="M-84.6105 26.2888
L-83.8962 26.2888
" />
<path d="M-84.7533 26.7173
L-84.2533 25.2173
" />
<path d="M-84.2533 25.2173
L-83.7533 26.7173
" />
<path d="M-83.2533 26.5745
L-83.1819 26.6459
" />
<path d="M-83.1819 26.6459
L-83.2533 26.7173
" />
<path d="M-83.2533 26.7173
L-83.3247 26.6459
" />
<path d="M-83.3247 26.6459
L-83.2533 26.5745
" />
<path d="M-83.2533 26.5745
L-83.2533 26.7173
" />
<path d="M-80.2533 26.7173
L-80.2533 25.2173
" />
<path d="M-80.1105 26.1459
L-79.6819 26.7173
" />
<path d="M-79.6819 25.7173
L-80.2533 26.2888
" />
<path d="M-79.0390 26.7173
L-79.0390 25.7173
" />
<path d="M-79.0390 25.2173
L-79.1105 25.2888
" />
<path d="M-79.1105 25.2888
L-79.0390 25.3602
" />
<path d="M-79.0390 25.3602
L-78.9676 25.2888
" />
<path d="M-78.9676 25.2888
L-79.0390 25.2173
" />
<path d="M-79.0390 25.2173
L-79.0390 25.3602
" />
<path d="M-77.6819 26.6459
L-77.8247 26.7173
" />
<path d="M-77.8247 26.7173
L-78.1105 26.7173
" />
<path d="M-78.1105 26.7173
L-78.2533 26.6459
" />
<path d="M-78.2533 26.6459
L-78.3247 26.5745
" />
<path d="M-78.3247 26.5745
L-78.3962 26.4316
" />
<path d="M-78.3962 26.4316
L-78.3962 26.0030
" />
<path d="M-78.3962 26.0030
L-78.3247 25.8602
" />
<path d="M-78.3247 25.8602
L-78.2533 25.7888
" />
<path d="M-78.2533 25.7888
L-78.1105 25.7173
" />
<path d="M-78.1105 25.7173
L-77.8247 25.7173
" />
<path d="M-77.8247 25.7173
L-77.6819 25.7888
" />
<path d="M-76.3962 26.7173
L-76.3962 25.9316
" />
<path d="M-76.3962 25.9316
L-76.4676 25.7888
" />
<path d="M-76.4676 25.7888
L-76.6105 25.7173
" />
<path d="M-76.6105 25.7173
L-76.8962 25.7173
" />
<path d="M-76.8962 25.7173
L-77.0390 25.7888
" />
<path d="M-76.3962 26.6459
L-76.5390 26.7173
" />
<path d="M-76.5390 26.7173
L-76.8962 26.7173
" />
<path d="M-76.8962 26.7173
L-77.0390 26.6459
" />
<path d="M-77.0390 26.6459
L-77.1105 26.5030
" />
<path d="M-77.1105 26.5030
L-77.1105 26.3602
" />
<path d="M-77.1105 26.3602
L-77.0390 26.2173
" />
<path d="M-77.0390 26.2173
L-76.8962 26.1459
" />
<path d="M-76.8962 26.1459
L-76.5390 26.1459
" />
<path d="M-76.5390 26.1459
L-76.3962 26.0745
" />
<path d="M-75.0390 26.7173
L-75.0390 25.2173
" />
<path d="M-75.0390 26.6459
L-75.1819 26.7173
" />
<path d="M-75.1819 26.7173
L-75.4676 26.7173
" />
<path d="M-75.4676 26.7173
L-75.6105 26.6459
" />
<path d="M-75.6105 26.6459
L-75.6819 26.5745
" />
<path d="M-75.6819 26.5745
L-75.7533 26.4316
" />
<path d="M-75.7533 26.4316
L-75.7533 26.0030
" />
<path d="M-75.7533 26.0030
L-75.6819 25.8602
" />
<path d="M-75.6819 25.8602
L-75.6105 25.7888
" />
<path d="M-75.6105 25.7888
L-75.4676 25.7173
" />
<path d="M-75.4676 25.7173
L-75.1819 25.7173
" />
<path d="M-75.1819 25.7173
L-75.0390 25.7888
" />
<path d="M-74.3247 26.1459
L-73.1819 26.1459
" />
<path d="M-71.8247 26.6459
L-71.9676 26.7173
" />
<path d="M-71.9676 26.7173
L-72.2533 26.7173
" />
<path d="M-72.2533 26.7173
L-72.3962 26.6459
" />
<path d="M-72.3962 26.6459
L-72.4676 26.5745
" />
<path d="M-72.4676 26.5745
L-72.5390 26.4316
" />
<path d="M-72.5390 26.4316
L-72.5390 26.0030
" />
<path d="M-72.5390 26.0030
L-72.4676 25.8602
" />
<path d="M-72.4676 25.8602
L-72.3962 25.7888
" />
<path d="M-72.3962 25.7888
L-72.2533 25.7173
" />
<path d="M-72.2533 25.7173
L-71.9676 25.7173
" />
<path d="M-71.9676 25.7173
L-71.8247 25.7888
" />
<path d="M-70.9676 26.7173
L-71.1105 26.6459
" />
<path d="M-71.1105 26.6459
L-71.1819 26.5030
" />
<path d="M-71.1819 26.5030
L-71.1819 25.2173
" />
<path d="M-70.3962 26.7173
L-70.3962 25.7173
" />
<path d="M-70.3962 25.2173
L-70.4676 25.2888
" />
<path d="M-70.4676 25.2888
L-70.3962 25.3602
" />
<path d="M-70.3962 25.3602
L-70.3247 25.2888
" />
<path d="M-70.3247 25.2888
L-70.3962 25.2173
" />
<path d="M-70.3962 25.2173
L-70.3962 25.3602
" />
<path d="M-68.6819 25.2173
L-67.6819 25.2173
" />
<path d="M-67.6819 25.2173
L-68.3247 26.7173
" />
<path d="M-67.1105 26.5745
L-67.0390 26.6459
" />
<path d="M-67.0390 26.6459
L-67.1105 26.7173
" />
<path d="M-67.1105 26.7173
L-67.1819 26.6459
" />
<path d="M-67.1819 26.6459
L-67.1105 26.5745
" />
<path d="M-67.1105 26.5745
L-67.1105 26.7173
" />
<path d="M-66.1105 25.2173
L-65.9676 25.2173
" />
<path d="M-65.9676 25.2173
L-65.8247 25.2888
" />
<path d="M-65.8247 25.2888
L-65.7533 25.3602
" />
<path d="M-65.7533 25.3602
L-65.6819 25.5030
" />
<path d="M-65.6819 25.5030
L-65.6105 25.7888
" />
<path d="M-65.6105 25.7888
L-65.6105 26.1459
" />
<path d="M-65.6105 26.1459
L-65.6819 26.4316
" />
<path d="M-65.6819 26.4316
L-65.7533 26.5745
" />
<path d="M-65.7533 26.5745
L-65.8247 26.6459
" />
<path d="M-65.8247 26.6459
L-65.9676 26.7173
" />
<path d="M-65.9676 26.7173
L-66.1105 26.7173
" />
<path d="M-66.1105 26.7173
L-66.2533 26.6459
" />
<path d="M-66.2533 26.6459
L-66.3247 26.5745
" />
<path d="M-66.3247 26.5745
L-66.3962 26.4316
" />
<path d="M-66.3962 26.4316
L-66.4676 26.1459
" />
<path d="M-66.4676 26.1459
L-66.4676 25.7888
" />
<path d="M-66.4676 25.7888
L-66.3962 25.5030
" />
<path d="M-66.3962 25.5030
L-66.3247 25.3602
" />
<path d="M-66.3247 25.3602
L-66.2533 25.2888
" />
<path d="M-66.2533 25.2888
L-66.1105 25.2173
" />
<path d="M-64.9676 26.5745
L-64.8962 26.6459
" />
<path d="M-64.8962 26.6459
L-64.9676 26.7173
" />
<path d="M-64.9676 26.7173
L-65.0390 26.6459
" />
<path d="M-65.0390 26.6459
L-64.9676 26.5745
" />
<path d="M-64.9676 26.5745
L-64.9676 26.7173
" />
<path d="M-63.4676 26.7173
L-64.3247 26.7173
" />
<path d="M-63.8962 26.7173
L-63.8962 25.2173
" />
<path d="M-63.8962 25.2173
L-64.0390 25.4316
" />
<path d="M-64.0390 25.4316
L-64.1819 25.5745
" />
<path d="M-64.1819 25.5745
L-64.3247 25.6459
" />
<path d="M-62.0390 26.7173
L-62.8962 26.7173
" />
<path d="M-62.4676 26.7173
L-62.4676 25.2173
" />
<path d="M-62.4676 25.2173
L-62.6105 25.4316
" />
<path d="M-62.6105 25.4316
L-62.7533 25.5745
" />
<path d="M-62.7533 25.5745
L-62.8962 25.6459
" />
<path d="M-61.3962 26.1459
L-60.2533 26.1459
" />
<path d="M-60.8247 26.7173
L-60.8247 25.5745
" />
<path d="M-58.8962 26.7173
L-58.8962 25.2173
" />
<path d="M-58.8962 26.6459
L-59.0390 26.7173
" />
<path d="M-59.0390 26.7173
L-59.3247 26.7173
" />
<path d="M-59.3247 26.7173
L-59.4676 26.6459
" />
<path d="M-59.4676 26.6459
L-59.5390 26.5745
" />
<path d="M-59.5390 26.5745
L-59.6105 26.4316
" />
<path d="M-59.6105 26.4316
L-59.6105 26.0030
" />
<path d="M-59.6105 26.0030
L-59.5390 25.8602
" />
<path d="M-59.5390 25.8602
L-59.4676 25.7888
" />
<path d="M-59.4676 25.7888
L-59.3247 25.7173
" />
<path d="M-59.3247 25.7173
L-59.0390 25.7173
" />
<path d="M-59.0390 25.7173
L-58.8962 25.7888
" />
<path d="M-58.3962 25.7173
L-57.8247 25.7173
" />
<path d="M-58.1819 26.7173
L-58.1819 25.4316
" />
<path d="M-58.1819 25.4316
L-58.1105 25.2888
" />
<path d="M-58.1105 25.2888
L-57.9676 25.2173
" />
<path d="M-57.9676 25.2173
L-57.8247 25.2173
" />
<path d="M-57.3962 26.6459
L-57.2533 26.7173
" />
<path d="M-57.2533 26.7173
L-56.9676 26.7173
" />
<path d="M-56.9676 26.7173
L-56.8247 26.6459
" />
<path d="M-56.8247 26.6459
L-56.7533 26.5030
" />
<path d="M-56.7533 26.5030
L-56.7533 26.4316
" />
<path d="M-56.7533 26.4316
L-56.8247 26.2888
" />
<path d="M-56.8247 26.2888
L-56.9676 26.2173
" />
<path d="M-56.9676 26.2173
L-57.1819 26.2173
" />
<path d="M-57.1819 26.2173
L-57.3247 26.1459
" />
<path d="M-57.3247 26.1459
L-57.3962 26.0030
" />
<path d="M-57.3962 26.0030
L-57.3962 25.9316
" />
<path d="M-57.3962 25.9316
L-57.3247 25.7888
" />
<path d="M-57.3247 25.7888
L-57.1819 25.7173
" />
<path d="M-57.1819 25.7173
L-56.9676 25.7173
" />
<path d="M-56.9676 25.7173
L-56.8247 25.7888
" />
<path d="M-55.4676 25.7173
L-55.4676 26.9316
" />
<path d="M-55.4676 26.9316
L-55.5390 27.0745
" />
<path d="M-55.5390 27.0745
L-55.6105 27.1459
" />
<path d="M-55.6105 27.1459
L-55.7533 27.2173
" />
<path d="M-55.7533 27.2173
L-55.9676 27.2173
" />
<path d="M-55.9676 27.2173
L-56.1105 27.1459
" />
<path d="M-55.4676 26.6459
L-55.6105 26.7173
" />
<path d="M-55.6105 26.7173
L-55.8962 26.7173
" />
<path d="M-55.8962 26.7173
L-56.0390 26.6459
" />
<path d="M-56.0390 26.6459
L-56.1105 26.5745
" />
<path d="M-56.1105 26.5745
L-56.1819 26.4316
" />
<path d="M-56.1819 26.4316
L-56.1819 26.0030
" />
<path d="M-56.1819 26.0030
L-56.1105 25.8602
" />
<path d="M-56.1105 25.8602
L-56.0390 25.7888
" />
<path d="M-56.0390 25.7888
L-55.8962 25.7173
" />
<path d="M-55.8962 25.7173
L-55.6105 25.7173
" />
<path d="M-55.6105 25.7173
L-55.4676 25.7888
" />
<path d="M-54.7533 26.1459
L-53.6105 26.1459
" />
<path d="M-52.1105 26.7173
L-52.9676 26.7173
" />
<path d="M-52.5390 26.7173
L-52.5390 25.2173
" />
<path d="M-52.5390 25.2173
L-52.6819 25.4316
" />
<path d="M-52.6819 25.4316
L-52.8247 25.5745
" />
<path d="M-52.8247 25.5745
L-52.9676 25.6459
" />
<path d="M-51.4676 26.7173
L-51.4676 25.2173
" />
<path d="M-51.4676 25.7888
L-51.3247 25.7173
" />
<path d="M-51.3247 25.7173
L-51.0390 25.7173
" />
<path d="M-51.0390 25.7173
L-50.8962 25.7888
" />
<path d="M-50.8962 25.7888
L-50.8247 25.8602
" />
<path d="M-50.8247 25.8602
L-50.7533 26.0030
" />
<path d="M-50.7533 26.0030
L-50.7533 26.4316
" />
<path d="M-50.7533 26.4316
L-50.8247 26.5745
" />
<path d="M-50.8247 26.5745
L-50.8962 26.6459
" />
<path d="M-50.8962 26.6459
L-51.0390 26.7173
" />
<path d="M-51.0390 26.7173
L-51.3247 26.7173
" />
<path d="M-51.3247 26.7173
L-51.4676 26.6459
" />
<path d="M-49.4676 25.7173
L-49.4676 26.7173
" />
<path d="M-50.1105 25.7173
L-50.1105 26.5030
" />
<path d="M-50.1105 26.5030
L-50.0390 26.6459
" />
<path d="M-50.0390 26.6459
L-49.8962 26.7173
" />
<path d="M-49.8962 26.7173
L-49.6819 26.7173
" />
<path d="M-49.6819 26.7173
L-49.5390 26.6459
" />
<path d="M-49.5390 26.6459
L-49.4676 26.5745
" />
<path d="M-48.7533 26.7173
L-48.7533 25.7173
" />
<path d="M-48.7533 25.2173
L-48.8247 25.2888
" />
<path d="M-48.8247 25.2888
L-48.7533 25.3602
" />
<path d="M-48.7533 25.3602
L-48.6819 25.2888
" />
<path d="M-48.6819 25.2888
L-48.7533 25.2173
" />
<path d="M-48.7533 25.2173
L-48.7533 25.3602
" />
<path d="M-47.8247 26.7173
L-47.9676 26.6459
" />
<path d="M-47.9676 26.6459
L-48.0390 26.5030
" />
<path d="M-48.0390 26.5030
L-48.0390 25.2173
" />
<path d="M-46.6105 26.7173
L-46.6105 25.2173
" />
<path d="M-46.6105 26.6459
L-46.7533 26.7173
" />
<path d="M-46.7533 26.7173
L-47.0390 26.7173
" />
<path d="M-47.0390 26.7173
L-47.1819 26.6459
" />
<path d="M-47.1819 26.6459
L-47.2533 26.5745
" />
<path d="M-47.2533 26.5745
L-47.3247 26.4316
" />
<path d="M-47.3247 26.4316
L-47.3247 26.0030
" />
<path d="M-47.3247 26.0030
L-47.2533 25.8602
" />
<path d="M-47.2533 25.8602
L-47.1819 25.7888
" />
<path d="M-47.1819 25.7888
L-47.0390 25.7173
" />
<path d="M-47.0390 25.7173
L-46.7533 25.7173
" />
<path d="M-46.7533 25.7173
L-46.6105 25.7888
" />
<path d="M-45.2533 25.7173
L-45.2533 26.7173
" />
<path d="M-45.6105 25.1459
L-45.9676 26.2173
" />
<path d="M-45.9676 26.2173
L-45.0390 26.2173
" />
</g></g>
<g style="fill:#000000; fill-opacity:0.0; 
stroke:#000000; stroke-width:0.0212; stroke-opacity:1; 
stroke-linecap:round; stroke-linejoin:round;">
</g>
<g style="fill:#000000; fill-opacity:0.0; 
stroke:#000000; stroke-width:0.1500; stroke-opacity:1; 
stroke-linecap:round; stroke-linejoin:round;">
<path d="M-97.8520 21.6312
L10.1480 21.6312
" />
</g>
<g style="fill:#000000; fill-opacity:0.0; 
stroke:#000000; stroke-width:0.0212; stroke-opacity:1; 
stroke-linecap:round; stroke-linejoin:round;">
</g>
<g style="fill:#000000; fill-opacity:0.0; 
stroke:#000000; stroke-width:0.3000; stroke-opacity:1; 
stroke-linecap:round; stroke-linejoin:round;">
<text x="-11.8520" y="23.9812"
textLength="6.3857" font-size="2.0000" lengthAdjust="spacingAndGlyphs"
text-anchor="start" opacity="0">Rev: </text>
<g class="stroked-text"><desc>Rev: </desc>
<path d="M-10.4403 23.9095
L-10.9403 23.1952
" />
<path d="M-11.2975 23.9095
L-11.2975 22.4095
" />
<path d="M-11.2975 22.4095
L-10.7261 22.4095
" />
<path d="M-10.7261 22.4095
L-10.5832 22.4810
" />
<path d="M-10.5832 22.4810
L-10.5118 22.5524
" />
<path d="M-10.5118 22.5524
L-10.4403 22.6952
" />
<path d="M-10.4403 22.6952
L-10.4403 22.9095
" />
<path d="M-10.4403 22.9095
L-10.5118 23.0524
" />
<path d="M-10.5118 23.0524
L-10.5832 23.1238
" />
<path d="M-10.5832 23.1238
L-10.7261 23.1952
" />
<path d="M-10.7261 23.1952
L-11.2975 23.1952
" />
<path d="M-9.2261 23.8381
L-9.3689 23.9095
" />
<path d="M-9.3689 23.9095
L-9.6546 23.9095
" />
<path d="M-9.6546 23.9095
L-9.7975 23.8381
" />
<path d="M-9.7975 23.8381
L-9.8689 23.6952
" />
<path d="M-9.8689 23.6952
L-9.8689 23.1238
" />
<path d="M-9.8689 23.1238
L-9.7975 22.9810
" />
<path d="M-9.7975 22.9810
L-9.6546 22.9095
" />
<path d="M-9.6546 22.9095
L-9.3689 22.9095
" />
<path d="M-9.3689 22.9095
L-9.2261 22.9810
" />
<path d="M-9.2261 22.9810
L-9.1546 23.1238
" />
<path d="M-9.1546 23.1238
L-9.1546 23.2667
" />
<path d="M-9.1546 23.2667
L-9.8689 23.4095
" />
<path d="M-8.6546 22.9095
L-8.2975 23.9095
" />
<path d="M-8.2975 23.9095
L-7.9403 22.9095
" />
<path d="M-7.3689 23.7667
L-7.2975 23.8381
" />
<path d="M-7.2975 23.8381
L-7.3689 23.9095
" />
<path d="M-7.3689 23.9095
L-7.4403 23.8381
" />
<path d="M-7.4403 23.8381
L-7.3689 23.7667
" />
<path d="M-7.3689 23.7667
L-7.3689 23.9095
" />
<path d="M-7.3689 22.9810
L-7.2975 23.0524
" />
<path d="M-7.2975 23.0524
L-7.3689 23.1238
" />
<path d="M-7.3689 23.1238
L-7.4403 23.0524
" />
<path d="M-7.4403 23.0524
L-7.3689 22.9810
" />
<path d="M-7.3689 22.9810
L-7.3689 23.1238
" />
</g></g>
<g style="fill:#000000; fill-opacity:0.0; 
stroke:#000000; stroke-width:0.0212; stroke-opacity:1; 
stroke-linecap:round; stroke-linejoin:round;">
</g>
<g style="fill:#000000; fill-opacity:0.0; 
stroke:#000000; stroke-width:0.1500; stroke-opacity:1; 
stroke-linecap:round; stroke-linejoin:round;">
<text x="-96.8520" y="23.9812"
textLength="11.6500" font-size="2.0000" lengthAdjust="spacingAndGlyphs"
text-anchor="start" opacity="0">Size: User</text>
<g class="stroked-text"><desc>Size: User</desc>
<path d="M-96.4676 23.8459
L-96.2533 23.9173
" />
<path d="M-96.2533 23.9173
L-95.8962 23.9173
" />
<path d="M-95.8962 23.9173
L-95.7533 23.8459
" />
<path d="M-95.7533 23.8459
L-95.6819 23.7745
" />
<path d="M-95.6819 23.7745
L-95.6105 23.6316
" />
<path d="M-95.6105 23.6316
L-95.6105 23.4888
" />
<path d="M-95.6105 23.4888
L-95.6819 23.3459
" />
<path d="M-95.6819 23.3459
L-95.7533 23.2745
" />
<path d="M-95.7533 23.2745
L-95.8962 23.2030
" />
<path d="M-95.8962 23.2030
L-96.1819 23.1316
" />
<path d="M-96.1819 23.1316
L-96.3247 23.0602
" />
<path d="M-96.3247 23.0602
L-96.3962 22.9888
" />
<path d="M-96.3962 22.9888
L-96.4676 22.8459
" />
<path d="M-96.4676 22.8459
L-96.4676 22.7030
" />
<path d="M-96.4676 22.7030
L-96.3962 22.5602
" />
<path d="M-96.3962 22.5602
L-96.3247 22.4888
" />
<path d="M-96.3247 22.4888
L-96.1819 22.4173
" />
<path d="M-96.1819 22.4173
L-95.8247 22.4173
" />
<path d="M-95.8247 22.4173
L-95.6105 22.4888
" />
<path d="M-94.9676 23.9173
L-94.9676 22.9173
" />
<path d="M-94.9676 22.4173
L-95.0390 22.4888
" />
<path d="M-95.0390 22.4888
L-94.9676 22.5602
" />
<path d="M-94.9676 22.5602
L-94.8962 22.4888
" />
<path d="M-94.8962 22.4888
L-94.9676 22.4173
" />
<path d="M-94.9676 22.4173
L-94.9676 22.5602
" />
<path d="M-94.3962 22.9173
L-93.6105 22.9173
" />
<path d="M-93.6105 22.9173
L-94.3962 23.9173
" />
<path d="M-94.3962 23.9173
L-93.6105 23.9173
" />
<path d="M-92.4676 23.8459
L-92.6105 23.9173
" />
<path d="M-92.6105 23.9173
L-92.8962 23.9173
" />
<path d="M-92.8962 23.9173
L-93.0390 23.8459
" />
<path d="M-93.0390 23.8459
L-93.1105 23.7030
" />
<path d="M-93.1105 23.7030
L-93.1105 23.1316
" />
<path d="M-93.1105 23.1316
L-93.0390 22.9888
" />
<path d="M-93.0390 22.9888
L-92.8962 22.9173
" />
<path d="M-92.8962 22.9173
L-92.6105 22.9173
" />
<path d="M-92.6105 22.9173
L-92.4676 22.9888
" />
<path d="M-92.4676 22.9888
L-92.3962 23.1316
" />
<path d="M-92.3962 23.1316
L-92.3962 23.2745
" />
<path d="M-92.3962 23.2745
L-93.1105 23.4173
" />
<path d="M-91.7533 23.7745
L-91.6819 23.8459
" />
<path d="M-91.6819 23.8459
L-91.7533 23.9173
" />
<path d="M-91.7533 23.9173
L-91.8247 23.8459
" />
<path d="M-91.8247 23.8459
L-91.7533 23.7745
" />
<path d="M-91.7533 23.7745
L-91.7533 23.9173
" />
<path d="M-91.7533 22.9888
L-91.6819 23.0602
" />
<path d="M-91.6819 23.0602
L-91.7533 23.1316
" />
<path d="M-91.7533 23.1316
L-91.8247 23.0602
" />
<path d="M-91.8247 23.0602
L-91.7533 22.9888
" />
<path d="M-91.7533 22.9888
L-91.7533 23.1316
" />
<path d="M-89.8962 22.4173
L-89.8962 23.6316
" />
<path d="M-89.8962 23.6316
L-89.8247 23.7745
" />
<path d="M-89.8247 23.7745
L-89.7533 23.8459
" />
<path d="M-89.7533 23.8459
L-89.6105 23.9173
" />
<path d="M-89.6105 23.9173
L-89.3247 23.9173
" />
<path d="M-89.3247 23.9173
L-89.1819 23.8459
" />
<path d="M-89.1819 23.8459
L-89.1105 23.7745
" />
<path d="M-89.1105 23.7745
L-89.0390 23.6316
" />
<path d="M-89.0390 23.6316
L-89.0390 22.4173
" />
<path d="M-88.3962 23.8459
L-88.2533 23.9173
" />
<path d="M-88.2533 23.9173
L-87.9676 23.9173
" />
<path d="M-87.9676 23.9173
L-87.8247 23.8459
" />
<path d="M-87.8247 23.8459
L-87.7533 23.7030
" />
<path d="M-87.7533 23.7030
L-87.7533 23.6316
" />
<path d="M-87.7533 23.6316
L-87.8247 23.4888
" />
<path d="M-87.8247 23.4888
L-87.9676 23.4173
" />
<path d="M-87.9676 23.4173
L-88.1819 23.4173
" />
<path d="M-88.1819 23.4173
L-88.3247 23.3459
" />
<path d="M-88.3247 23.3459
L-88.3962 23.2030
" />
<path d="M-88.3962 23.2030
L-88.3962 23.1316
" />
<path d="M-88.3962 23.1316
L-88.3247 22.9888
" />
<path d="M-88.3247 22.9888
L-88.1819 22.9173
" />
<path d="M-88.1819 22.9173
L-87.9676 22.9173
" />
<path d="M-87.9676 22.9173
L-87.8247 22.9888
" />
<path d="M-86.5390 23.8459
L-86.6819 23.9173
" />
<path d="M-86.6819 23.9173
L-86.9676 23.9173
" />
<path d="M-86.9676 23.9173
L-87.1105 23.8459
" />
<path d="M-87.1105 23.8459
L-87.1819 23.7030
" />
<path d="M-87.1819 23.7030
L-87.1819 23.1316
" />
<path d="M-87.1819 23.1316
L-87.1105 22.9888
" />
<path d="M-87.1105 22.9888
L-86.9676 22.9173
" />
<path d="M-86.9676 22.9173
L-86.6819 22.9173
" />
<path d="M-86.6819 22.9173
L-86.5390 22.9888
" />
<path d="M-86.5390 22.9888
L-86.4676 23.1316
" />
<path d="M-86.4676 23.1316
L-86.4676 23.2745
" />
<path d="M-86.4676 23.2745
L-87.1819 23.4173
" />
<path d="M-85.8247 23.9173
L-85.8247 22.9173
" />
<path d="M-85.8247 23.2030
L-85.7533 23.0602
" />
<path d="M-85.7533 23.0602
L-85.6819 22.9888
" />
<path d="M-85.6819 22.9888
L-85.5390 22.9173
" />
<path d="M-85.5390 22.9173
L-85.3962 22.9173
" />
</g></g>
<g style="fill:#000000; fill-opacity:0.0; 
stroke:#000000; stroke-width:0.0212; stroke-opacity:1; 
stroke-linecap:round; stroke-linejoin:round;">
</g>
<g style="fill:#000000; fill-opacity:0.0; 
stroke:#000000; stroke-width:0.1500; stroke-opacity:1; 
stroke-linecap:round; stroke-linejoin:round;">
<text x="-11.8520" y="26.7812"
textLength="8.5071" font-size="2.0000" lengthAdjust="spacingAndGlyphs"
text-anchor="start" opacity="0">Id: 1/1</text>
<g class="stroked-text"><desc>Id: 1/1</desc>
<path d="M-11.3962 26.7173
L-11.3962 25.2173
" />
<path d="M-10.0390 26.7173
L-10.0390 25.2173
" />
<path d="M-10.0390 26.6459
L-10.1819 26.7173
" />
<path d="M-10.1819 26.7173
L-10.4676 26.7173
" />
<path d="M-10.4676 26.7173
L-10.6105 26.6459
" />
<path d="M-10.6105 26.6459
L-10.6819 26.5745
" />
<path d="M-10.6819 26.5745
L-10.7533 26.4316
" />
<path d="M-10.7533 26.4316
L-10.7533 26.0030
" />
<path d="M-10.7533 26.0030
L-10.6819 25.8602
" />
<path d="M-10.6819 25.8602
L-10.6105 25.7888
" />
<path d="M-10.6105 25.7888
L-10.4676 25.7173
" />
<path d="M-10.4676 25.7173
L-10.1819 25.7173
" />
<path d="M-10.1819 25.7173
L-10.0390 25.7888
" />
<path d="M-9.3247 26.5745
L-9.2533 26.6459
" />
<path d="M-9.2533 26.6459
L-9.3247 26.7173
" />
<path d="M-9.3247 26.7173
L-9.3962 26.6459
" />
<path d="M-9.3962 26.6459
L-9.3247 26.5745
" />
<path d="M-9.3247 26.5745
L-9.3247 26.7173
" />
<path d="M-9.3247 25.7888
L-9.2533 25.8602
" />
<path d="M-9.2533 25.8602
L-9.3247 25.9316
" />
<path d="M-9.3247 25.9316
L-9.3962 25.8602
" />
<path d="M-9.3962 25.8602
L-9.3247 25.7888
" />
<path d="M-9.3247 25.7888
L-9.3247 25.9316
" />
<path d="M-6.6819 26.7173
L-7.5390 26.7173
" />
<path d="M-7.1105 26.7173
L-7.1105 25.2173
" />
<path d="M-7.1105 25.2173
L-7.2533 25.4316
" />
<path d="M-7.2533 25.4316
L-7.3962 25.5745
" />
<path d="M-7.3962 25.5745
L-7.5390 25.6459
" />
<path d="M-4.9676 25.1459
L-6.2533 27.0745
" />
<path d="M-3.6819 26.7173
L-4.5390 26.7173
" />
<path d="M-4.1105 26.7173
L-4.1105 25.2173
" />
<path d="M-4.1105 25.2173
L-4.2533 25.4316
" />
<path d="M-4.2533 25.4316
L-4.3962 25.5745
" />
<path d="M-4.3962 25.5745
L-4.5390 25.6459
" />
</g></g>
<g style="fill:#000000; fill-opacity:0.0; 
stroke:#000000; stroke-width:0.0212; stroke-opacity:1; 
stroke-linecap:round; stroke-linejoin:round;">
</g>
<g style="fill:#000000; fill-opacity:0.0; 
stroke:#000000; stroke-width:0.1500; stroke-opacity:1; 
stroke-linecap:round; stroke-linejoin:round;">
<path d="M-97.8520 17.6312
L10.1480 17.6312
" />
</g>
<g style="fill:#000000; fill-opacity:0.0; 
stroke:#000000; stroke-width:0.0212; stroke-opacity:1; 
stroke-linecap:round; stroke-linejoin:round;">
</g>
<g style="fill:#000000; fill-opacity:0.0; 
stroke:#000000; stroke-width:0.4000; stroke-opacity:1; 
stroke-linecap:round; stroke-linejoin:round;">
<text x="-96.8520" y="20.4312"
textLength="9.6571" font-size="2.6667" lengthAdjust="spacingAndGlyphs"
text-anchor="start" opacity="0">Title: </text>
<g class="stroked-text"><desc>Title: </desc>
<path d="M-96.1603 18.3356
L-95.0174 18.3356
" />
<path d="M-95.8388 20.3356
L-95.5888 18.3356
" />
<path d="M-94.6007 20.3356
L-94.4341 19.0023
" />
<path d="M-94.3507 18.3356
L-94.4579 18.4309
" />
<path d="M-94.4579 18.4309
L-94.3746 18.5261
" />
<path d="M-94.3746 18.5261
L-94.2674 18.4309
" />
<path d="M-94.2674 18.4309
L-94.3507 18.3356
" />
<path d="M-94.3507 18.3356
L-94.3746 18.5261
" />
<path d="M-93.7674 19.0023
L-93.0055 19.0023
" />
<path d="M-93.3984 18.3356
L-93.6127 20.0499
" />
<path d="M-93.6127 20.0499
L-93.5412 20.2404
" />
<path d="M-93.5412 20.2404
L-93.3627 20.3356
" />
<path d="M-93.3627 20.3356
L-93.1722 20.3356
" />
<path d="M-92.2198 20.3356
L-92.3984 20.2404
" />
<path d="M-92.3984 20.2404
L-92.4698 20.0499
" />
<path d="M-92.4698 20.0499
L-92.2555 18.3356
" />
<path d="M-90.6841 20.2404
L-90.8865 20.3356
" />
<path d="M-90.8865 20.3356
L-91.2674 20.3356
" />
<path d="M-91.2674 20.3356
L-91.4460 20.2404
" />
<path d="M-91.4460 20.2404
L-91.5174 20.0499
" />
<path d="M-91.5174 20.0499
L-91.4222 19.2880
" />
<path d="M-91.4222 19.2880
L-91.3031 19.0975
" />
<path d="M-91.3031 19.0975
L-91.1007 19.0023
" />
<path d="M-91.1007 19.0023
L-90.7198 19.0023
" />
<path d="M-90.7198 19.0023
L-90.5412 19.0975
" />
<path d="M-90.5412 19.0975
L-90.4698 19.2880
" />
<path d="M-90.4698 19.2880
L-90.4936 19.4785
" />
<path d="M-90.4936 19.4785
L-91.4698 19.6690
" />
<path d="M-89.7198 20.1452
L-89.6365 20.2404
" />
<path d="M-89.6365 20.2404
L-89.7436 20.3356
" />
<path d="M-89.7436 20.3356
L-89.8269 20.2404
" />
<path d="M-89.8269 20.2404
L-89.7198 20.1452
" />
<path d="M-89.7198 20.1452
L-89.7436 20.3356
" />
<path d="M-89.5888 19.0975
L-89.5055 19.1928
" />
<path d="M-89.5055 19.1928
L-89.6127 19.2880
" />
<path d="M-89.6127 19.2880
L-89.6960 19.1928
" />
<path d="M-89.6960 19.1928
L-89.5888 19.0975
" />
<path d="M-89.5888 19.0975
L-89.6127 19.2880
" />
</g></g>
<g style="fill:#000000; fill-opacity:0.0; 
stroke:#000000; stroke-width:0.0212; stroke-opacity:1; 
stroke-linecap:round; stroke-linejoin:round;">
</g>
<g style="fill:#000000; fill-opacity:0.0; 
stroke:#000000; stroke-width:0.1500; stroke-opacity:1; 
stroke-linecap:round; stroke-linejoin:round;">
<text x="-96.8520" y="16.5812"
textLength="29.0786" font-size="2.0000" lengthAdjust="spacingAndGlyphs"
text-anchor="start" opacity="0">File: mic-head.kicad_pcb</text>
<g class="stroked-text"><desc>File: mic-head.kicad_pcb</desc>
<path d="M-95.8962 15.7316
L-96.3962 15.7316
" />
<path d="M-96.3962 16.5173
L-96.3962 15.0173
" />
<path d="M-96.3962 15.0173
L-95.6819 15.0173
" />
<path d="M-95.1105 16.5173
L-95.1105 15.5173
" />
<path d="M-95.1105 15.0173
L-95.1819 15.0888
" />
<path d="M-95.1819 15.0888
L-95.1105 15.1602
" />
<path d="M-95.1105 15.1602
L-95.0390 15.0888
" />
<path d="M-95.0390 15.0888
L-95.1105 15.0173
" />
<path d="M-95.1105 15.0173
L-95.1105 15.1602
" />
<path d="M-94.1819 16.5173
L-94.3247 16.4459
" />
<path d="M-94.3247 16.4459
L-94.3962 16.3030
" />
<path d="M-94.3962 16.3030
L-94.3962 15.0173
" />
<path d="M-93.0390 16.4459
L-93.1819 16.5173
" />
<path d="M-93.1819 16.5173
L-93.4676 16.5173
" />
<path d="M-93.4676 16.5173
L-93.6105 16.4459
" />
<path d="M-93.6105 16.4459
L-93.6819 16.3030
" />
<path d="M-93.6819 16.3030
L-93.6819 15.7316
" />
<path d="M-93.6819 15.7316
L-93.6105 15.5888
" />
<path d="M-93.6105 15.5888
L-93.4676 15.5173
" />
<path d="M-93.4676 15.5173
L-93.1819 15.5173
" />
<path d="M-93.1819 15.5173
L-93.0390 15.5888
" />
<path d="M-93.0390 15.5888
L-92.9676 15.7316
" />
<path d="M-92.9676 15.7316
L-92.9676 15.8745
" />
<path d="M-92.9676 15.8745
L-93.6819 16.0173
" />
<path d="M-92.3247 16.3745
L-92.2533 16.4459
" />
<path d="M-92.2533 16.4459
L-92.3247 16.5173
" />
<path d="M-92.3247 16.5173
L-92.3962 16.4459
" />
<path d="M-92.3962 16.4459
L-92.3247 16.3745
" />
<path d="M-92.3247 16.3745
L-92.3247 16.5173
" />
<path d="M-92.3247 15.5888
L-92.2533 15.6602
" />
<path d="M-92.2533 15.6602
L-92.3247 15.7316
" />
<path d="M-92.3247 15.7316
L-92.3962 15.6602
" />
<path d="M-92.3962 15.6602
L-92.3247 15.5888
" />
<path d="M-92.3247 15.5888
L-92.3247 15.7316
" />
<path d="M-90.4676 16.5173
L-90.4676 15.5173
" />
<path d="M-90.4676 15.6602
L-90.3962 15.5888
" />
<path d="M-90.3962 15.5888
L-90.2533 15.5173
" />
<path d="M-90.2533 15.5173
L-90.0390 15.5173
" />
<path d="M-90.0390 15.5173
L-89.8962 15.5888
" />
<path d="M-89.8962 15.5888
L-89.8247 15.7316
" />
<path d="M-89.8247 15.7316
L-89.8247 16.5173
" />
<path d="M-89.8247 15.7316
L-89.7533 15.5888
" />
<path d="M-89.7533 15.5888
L-89.6105 15.5173
" />
<path d="M-89.6105 15.5173
L-89.3962 15.5173
" />
<path d="M-89.3962 15.5173
L-89.2533 15.5888
" />
<path d="M-89.2533 15.5888
L-89.1819 15.7316
" />
<path d="M-89.1819 15.7316
L-89.1819 16.5173
" />
<path d="M-88.4676 16.5173
L-88.4676 15.5173
" />
<path d="M-88.4676 15.0173
L-88.5390 15.0888
" />
<path d="M-88.5390 15.0888
L-88.4676 15.1602
" />
<path d="M-88.4676 15.1602
L-88.3962 15.0888
" />
<path d="M-88.3962 15.0888
L-88.4676 15.0173
" />
<path d="M-88.4676 15.0173
L-88.4676 15.1602
" />
<path d="M-87.1105 16.4459
L-87.2533 16.5173
" />
<path d="M-87.2533 16.5173
L-87.5390 16.5173
" />
<path d="M-87.5390 16.5173
L-87.6819 16.4459
" />
<path d="M-87.6819 16.4459
L-87.7533 16.3745
" />
<path d="M-87.7533 16.3745
L-87.8247 16.2316
" />
<path d="M-87.8247 16.2316
L-87.8247 15.8030
" />
<path d="M-87.8247 15.8030
L-87.7533 15.6602
" />
<path d="M-87.7533 15.6602
L-87.6819 15.5888
" />
<path d="M-87.6819 15.5888
L-87.5390 15.5173
" />
<path d="M-87.5390 15.5173
L-87.2533 15.5173
" />
<path d="M-87.2533 15.5173
L-87.1105 15.5888
" />
<path d="M-86.4676 15.9459
L-85.3247 15.9459
" />
<path d="M-84.6105 16.5173
L-84.6105 15.0173
" />
<path d="M-83.9676 16.5173
L-83.9676 15.7316
" />
<path d="M-83.9676 15.7316
L-84.0390 15.5888
" />
<path d="M-84.0390 15.5888
L-84.1819 15.5173
" />
<path d="M-84.1819 15.5173
L-84.3962 15.5173
" />
<path d="M-84.3962 15.5173
L-84.5390 15.5888
" />
<path d="M-84.5390 15.5888
L-84.6105 15.6602
" />
<path d="M-82.6819 16.4459
L-82.8247 16.5173
" />
<path d="M-82.8247 16.5173
L-83.1105 16.5173
" />
<path d="M-83.1105 16.5173
L-83.2533 16.4459
" />
<path d="M-83.2533 16.4459
L-83.3247 16.3030
" />
<path d="M-83.3247 16.3030
L-83.3247 15.7316
" />
<path d="M-83.3247 15.7316
L-83.2533 15.5888
" />
<path d="M-83.2533 15.5888
L-83.1105 15.5173
" />
<path d="M-83.1105 15.5173
L-82.8247 15.5173
" />
<path d="M-82.8247 15.5173
L-82.6819 15.5888
" />
<path d="M-82.6819 15.5888
L-82.6105 15.7316
" />
<path d="M-82.6105 15.7316
L-82.6105 15.8745
" />
<path d="M-82.6105 15.8745
L-83.3247 16.0173
" />
<path d="M-81.3247 16.5173
L-81.3247 15.7316
" />
<path d="M-81.3247 15.7316
L-81.3962 15.5888
" />
<path d="M-81.3962 15.5888
L-81.5390 15.5173
" />
<path d="M-81.5390 15.5173
L-81.8247 15.5173
" />
<path d="M-81.8247 15.5173
L-81.9676 15.5888
" />
<path d="M-81.3247 16.4459
L-81.4676 16.5173
" />
<path d="M-81.4676 16.5173
L-81.8247 16.5173
" />
<path d="M-81.8247 16.5173
L-81.9676 16.4459
" />
<path d="M-81.9676 16.4459
L-82.0390 16.3030
" />
<path d="M-82.0390 16.3030
L-82.0390 16.1602
" />
<path d="M-82.0390 16.1602
L-81.9676 16.0173
" />
<path d="M-81.9676 16.0173
L-81.8247 15.9459
" />
<path d="M-81.8247 15.9459
L-81.4676 15.9459
" />
<path d="M-81.4676 15.9459
L-81.3247 15.8745
" />
<path d="M-79.9676 16.5173
L-79.9676 15.0173
" />
<path d="M-79.9676 16.4459
L-80.1105 16.5173
" />
<path d="M-80.1105 16.5173
L-80.3962 16.5173
" />
<path d="M-80.3962 16.5173
L-80.5390 16.4459
" />
<path d="M-80.5390 16.4459
L-80.6105 16.3745
" />
<path d="M-80.6105 16.3745
L-80.6819 16.2316
" />
<path d="M-80.6819 16.2316
L-80.6819 15.8030
" />
<path d="M-80.6819 15.8030
L-80.6105 15.6602
" />
<path d="M-80.6105 15.6602
L-80.5390 15.5888
" />
<path d="M-80.5390 15.5888
L-80.3962 15.5173
" />
<path d="M-80.3962 15.5173
L-80.1105 15.5173
" />
<path d="M-80.1105 15.5173
L-79.9676 15.5888
" />
<path d="M-79.2533 16.3745
L-79.1819 16.4459
" />
<path d="M-79.1819 16.4459
L-79.2533 16.5173
" />
<path d="M-79.2533 16.5173
L-79.3247 16.4459
" />
<path d="M-79.3247 16.4459
L-79.2533 16.3745
" />
<path d="M-79.2533 16.3745
L-79.2533 16.5173
" />
<path d="M-78.5390 16.5173
L-78.5390 15.0173
" />
<path d="M-78.3962 15.9459
L-77.9676 16.5173
" />
<path d="M-77.9676 15.5173
L-78.5390 16.0888
" />
<path d="M-77.3247 16.5173
L-77.3247 15.5173
" />
<path d="M-77.3247 15.0173
L-77.3962 15.0888
" />
<path d="M-77.3962 15.0888
L-77.3247 15.1602
" />
<path d="M-77.3247 15.1602
L-77.2533 15.0888
" />
<path d="M-77.2533 15.0888
L-77.3247 15.0173
" />
<path d="M-77.3247 15.0173
L-77.3247 15.1602
" />
<path d="M-75.9676 16.4459
L-76.1105 16.5173
" />
<path d="M-76.1105 16.5173
L-76.3962 16.5173
" />
<path d="M-76.3962 16.5173
L-76.5390 16.4459
" />
<path d="M-76.5390 16.4459
L-76.6105 16.3745
" />
<path d="M-76.6105 16.3745
L-76.6819 16.2316
" />
<path d="M-76.6819 16.2316
L-76.6819 15.8030
" />
<path d="M-76.6819 15.8030
L-76.6105 15.6602
" />
<path d="M-76.6105 15.6602
L-76.5390 15.5888
" />
<path d="M-76.5390 15.5888
L-76.3962 15.5173
" />
<path d="M-76.3962 15.5173
L-76.1105 15.5173
" />
<path d="M-76.1105 15.5173
L-75.9676 15.5888
" />
<path d="M-74.6819 16.5173
L-74.6819 15.7316
" />
<path d="M-74.6819 15.7316
L-74.7533 15.5888
" />
<path d="M-74.7533 15.5888
L-74.8962 15.5173
" />
<path d="M-74.8962 15.5173
L-75.1819 15.5173
" />
<path d="M-75.1819 15.5173
L-75.3247 15.5888
" />
<path d="M-74.6819 16.4459
L-74.8247 16.5173
" />
<path d="M-74.8247 16.5173
L-75.1819 16.5173
" />
<path d="M-75.1819 16.5173
L-75.3247 16.4459
" />
<path d="M-75.3247 16.4459
L-75.3962 16.3030
" />
<path d="M-75.3962 16.3030
L-75.3962 16.1602
" />
<path d="M-75.3962 16.1602
L-75.3247 16.0173
" />
<path d="M-75.3247 16.0173
L-75.1819 15.9459
" />
<path d="M-75.1819 15.9459
L-74.8247 15.9459
" />
<path d="M-74.8247 15.9459
L-74.6819 15.8745
" />
<path d="M-73.3247 16.5173
L-73.3247 15.0173
" />
<path d="M-73.3247 16.4459
L-73.4676 16.5173
" />
<path d="M-73.4676 16.5173
L-73.7533 16.5173
" />
<path d="M-73.7533 16.5173
L-73.8962 16.4459
" />
<path d="M-73.8962 16.4459
L-73.9676 16.3745
" />
<path d="M-73.9676 16.3745
L-74.0390 16.2316
" />
<path d="M-74.0390 16.2316
L-74.0390 15.8030
" />
<path d="M-74.0390 15.8030
L-73.9676 15.6602
" />
<path d="M-73.9676 15.6602
L-73.8962 15.5888
" />
<path d="M-73.8962 15.5888
L-73.7533 15.5173
" />
<path d="M-73.7533 15.5173
L-73.4676 15.5173
" />
<path d="M-73.4676 15.5173
L-73.3247 15.5888
" />
<path d="M-72.9676 16.6602
L-71.8247 16.6602
" />
<path d="M-71.4676 15.5173
L-71.4676 17.0173
" />
<path d="M-71.4676 15.5888
L-71.3247 15.5173
" />
<path d="M-71.3247 15.5173
L-71.0390 15.5173
" />
<path d="M-71.0390 15.5173
L-70.8962 15.5888
" />
<path d="M-70.8962 15.5888
L-70.8247 15.6602
" />
<path d="M-70.8247 15.6602
L-70.7533 15.8030
" />
<path d="M-70.7533 15.8030
L-70.7533 16.2316
" />
<path d="M-70.7533 16.2316
L-70.8247 16.3745
" />
<path d="M-70.8247 16.3745
L-70.8962 16.4459
" />
<path d="M-70.8962 16.4459
L-71.0390 16.5173
" />
<path d="M-71.0390 16.5173
L-71.3247 16.5173
" />
<path d="M-71.3247 16.5173
L-71.4676 16.4459
" />
<path d="M-69.4676 16.4459
L-69.6105 16.5173
" />
<path d="M-69.6105 16.5173
L-69.8962 16.5173
" />
<path d="M-69.8962 16.5173
L-70.0390 16.4459
" />
<path d="M-70.0390 16.4459
L-70.1105 16.3745
" />
<path d="M-70.1105 16.3745
L-70.1819 16.2316
" />
<path d="M-70.1819 16.2316
L-70.1819 15.8030
" />
<path d="M-70.1819 15.8030
L-70.1105 15.6602
" />
<path d="M-70.1105 15.6602
L-70.0390 15.5888
" />
<path d="M-70.0390 15.5888
L-69.8962 15.5173
" />
<path d="M-69.8962 15.5173
L-69.6105 15.5173
" />
<path d="M-69.6105 15.5173
L-69.4676 15.5888
" />
<path d="M-68.8247 16.5173
L-68.8247 15.0173
" />
<path d="M-68.8247 15.5888
L-68.6819 15.5173
" />
<path d="M-68.6819 15.5173
L-68.3962 15.5173
" />
<path d="M-68.3962 15.5173
L-68.2533 15.5888
" />
<path d="M-68.2533 15.5888
L-68.1819 15.6602
" />
<path d="M-68.1819 15.6602
L-68.1105 15.8030
" />
<path d="M-68.1105 15.8030
L-68.1105 16.2316
" />
<path d="M-68.1105 16.2316
L-68.1819 16.3745
" />
<path d="M-68.1819 16.3745
L-68.2533 16.4459
" />
<path d="M-68.2533 16.4459
L-68.3962 16.5173
" />
<path d="M-68.3962 16.5173
L-68.6819 16.5173
" />
<path d="M-68.6819 16.5173
L-68.8247 16.4459
" />
</g></g>
<g style="fill:#000000; fill-opacity:0.0; 
stroke:#000000; stroke-width:0.0212; stroke-opacity:1; 
stroke-linecap:round; stroke-linejoin:round;">
</g>
<g style="fill:#000000; fill-opacity:0.0; 
stroke:#000000; stroke-width:0.1500; stroke-opacity:1; 
stroke-linecap:round; stroke-linejoin:round;">
<path d="M-97.8520 11.6312
L10.1480 11.6312
" />
</g>
<g style="fill:#000000; fill-opacity:0.0; 
stroke:#000000; stroke-width:0.0212; stroke-opacity:1; 
stroke-linecap:round; stroke-linejoin:round;">
</g>
<g style="fill:#000000; fill-opacity:0.0; 
stroke:#000000; stroke-width:0.1500; stroke-opacity:1; 
stroke-linecap:round; stroke-linejoin:round;">
<text x="-96.8520" y="13.8812"
textLength="8.2214" font-size="2.0000" lengthAdjust="spacingAndGlyphs"
text-anchor="start" opacity="0">Sheet: </text>
<g class="stroked-text"><desc>Sheet: </desc>
<path d="M-96.4676 13.7459
L-96.2533 13.8173
" />
<path d="M-96.2533 13.8173
L-95.8962 13.8173
" />
<path d="M-95.8962 13.8173
L-95.7533 13.7459
" />
<path d="M-95.7533 13.7459
L-95.6819 13.6745
" />
<path d="M-95.6819 13.6745
L-95.6105 13.5316
" />
<path d="M-95.6105 13.5316
L-95.6105 13.3888
" />
<path d="M-95.6105 13.3888
L-95.6819 13.2459
" />
<path d="M-95.6819 13.2459
L-95.7533 13.1745
" />
<path d="M-95.7533 13.1745
L-95.8962 13.1030
" />
<path d="M-95.8962 13.1030
L-96.1819 13.0316
" />
<path d="M-96.1819 13.0316
L-96.3247 12.9602
" />
<path d="M-96.3247 12.9602
L-96.3962 12.8888
" />
<path d="M-96.3962 12.8888
L-96.4676 12.7459
" />
<path d="M-96.4676 12.7459
L-96.4676 12.6030
" />
<path d="M-96.4676 12.6030
L-96.3962 12.4602
" />
<path d="M-96.3962 12.4602
L-96.3247 12.3888
" />
<path d="M-96.3247 12.3888
L-96.1819 12.3173
" />
<path d="M-96.1819 12.3173
L-95.8247 12.3173
" />
<path d="M-95.8247 12.3173
L-95.6105 12.3888
" />
<path d="M-94.9676 13.8173
L-94.9676 12.3173
" />
<path d="M-94.3247 13.8173
L-94.3247 13.0316
" />
<path d="M-94.3247 13.0316
L-94.3962 12.8888
" />
<path d="M-94.3962 12.8888
L-94.5390 12.8173
" />
<path d="M-94.5390 12.8173
L-94.7533 12.8173
" />
<path d="M-94.7533 12.8173
L-94.8962 12.8888
" />
<path d="M-94.8962 12.8888
L-94.9676 12.9602
" />
<path d="M-93.0390 13.7459
L-93.1819 13.8173
" />
<path d="M-93.1819 13.8173
L-93.4676 13.8173
" />
<path d="M-93.4676 13.8173
L-93.6105 13.7459
" />
<path d="M-93.6105 13.7459
L-93.6819 13.6030
" />
<path d="M-93.6819 13.6030
L-93.6819 13.0316
" />
<path d="M-93.6819 13.0316
L-93.6105 12.8888
" />
<path d="M-93.6105 12.8888
L-93.4676 12.8173
" />
<path d="M-93.4676 12.8173
L-93.1819 12.8173
" />
<path d="M-93.1819 12.8173
L-93.0390 12.8888
" />
<path d="M-93.0390 12.8888
L-92.9676 13.0316
" />
<path d="M-92.9676 13.0316
L-92.9676 13.1745
" />
<path d="M-92.9676 13.1745
L-93.6819 13.3173
" />
<path d="M-91.7533 13.7459
L-91.8962 13.8173
" />
<path d="M-91.8962 13.8173
L-92.1819 13.8173
" />
<path d="M-92.1819 13.8173
L-92.3247 13.7459
" />
<path d="M-92.3247 13.7459
L-92.3962 13.6030
" />
<path d="M-92.3962 13.6030
L-92.3962 13.0316
" />
<path d="M-92.3962 13.0316
L-92.3247 12.8888
" />
<path d="M-92.3247 12.8888
L-92.1819 12.8173
" />
<path d="M-92.1819 12.8173
L-91.8962 12.8173
" />
<path d="M-91.8962 12.8173
L-91.7533 12.8888
" />
<path d="M-91.7533 12.8888
L-91.6819 13.0316
" />
<path d="M-91.6819 13.0316
L-91.6819 13.1745
" />
<path d="M-91.6819 13.1745
L-92.3962 13.3173
" />
<path d="M-91.2533 12.8173
L-90.6819 12.8173
" />
<path d="M-91.0390 12.3173
L-91.0390 13.6030
" />
<path d="M-91.0390 13.6030
L-90.9676 13.7459
" />
<path d="M-90.9676 13.7459
L-90.8247 13.8173
" />
<path d="M-90.8247 13.8173
L-90.6819 13.8173
" />
<path d="M-90.1819 13.6745
L-90.1105 13.7459
" />
<path d="M-90.1105 13.7459
L-90.1819 13.8173
" />
<path d="M-90.1819 13.8173
L-90.2533 13.7459
" />
<path d="M-90.2533 13.7459
L-90.1819 13.6745
" />
<path d="M-90.1819 13.6745
L-90.1819 13.8173
" />
<path d="M-90.1819 12.8888
L-90.1105 12.9602
" />
<path d="M-90.1105 12.9602
L-90.1819 13.0316
" />
<path d="M-90.1819 13.0316
L-90.2533 12.9602
" />
<path d="M-90.2533 12.9602
L-90.1819 12.8888
" />
<path d="M-90.1819 12.8888
L-90.1819 13.0316
" />
</g></g>
<g style="fill:#000000; fill-opacity:0.0; 
stroke:#000000; stroke-width:0.0212; stroke-opacity:1; 
stroke-linecap:round; stroke-linejoin:round;">
</g>
<g style="fill:#000000; fill-opacity:0.0; 
stroke:#000000; stroke-width:0.3000; stroke-opacity:1; 
stroke-linecap:round; stroke-linejoin:round;">
<text x="-96.8520" y="10.8812"
textLength="0.9000" font-size="2.0000" lengthAdjust="spacingAndGlyphs"
text-anchor="start" opacity="0"></text>
<g class="stroked-text"><desc></desc>
</g></g>
<g style="fill:#000000; fill-opacity:0.0; 
stroke:#000000; stroke-width:0.0212; stroke-opacity:1; 
stroke-linecap:round; stroke-linejoin:round;">
</g>
<g style="fill:#000000; fill-opacity:0.0; 
stroke:#000000; stroke-width:0.1500; stroke-opacity:1; 
stroke-linecap:round; stroke-linejoin:round;">
<text x="-96.8520" y="7.8812"
textLength="0.4500" font-size="2.0000" lengthAdjust="spacingAndGlyphs"
text-anchor="start" opacity="0"></text>
<g class="stroked-text"><desc></desc>
</g></g>
<g style="fill:#000000; fill-opacity:0.0; 
stroke:#000000; stroke-width:0.0212; stroke-opacity:1; 
stroke-linecap:round; stroke-linejoin:round;">
</g>
<g style="fill:#000000; fill-opacity:0.0; 
stroke:#000000; stroke-width:0.1500; stroke-opacity:1; 
stroke-linecap:round; stroke-linejoin:round;">
<text x="-96.8520" y="4.8812"
textLength="0.4500" font-size="2.0000" lengthAdjust="spacingAndGlyphs"
text-anchor="start" opacity="0"></text>
<g class="stroked-text"><desc></desc>
</g></g>
<g style="fill:#000000; fill-opacity:0.0; 
stroke:#000000; stroke-width:0.0212; stroke-opacity:1; 
stroke-linecap:round; stroke-linejoin:round;">
</g>
<g style="fill:#000000; fill-opacity:0.0; 
stroke:#000000; stroke-width:0.1500; stroke-opacity:1; 
stroke-linecap:round; stroke-linejoin:round;">
<text x="-96.8520" y="1.8812"
textLength="0.4500" font-size="2.0000" lengthAdjust="spacingAndGlyphs"
text-anchor="start" opacity="0"></text>
<g class="stroked-text"><desc></desc>
</g></g>
<g style="fill:#000000; fill-opacity:0.0; 
stroke:#000000; stroke-width:0.0212; stroke-opacity:1; 
stroke-linecap:round; stroke-linejoin:round;">
</g>
<g style="fill:#000000; fill-opacity:0.0; 
stroke:#000000; stroke-width:0.1500; stroke-opacity:1; 
stroke-linecap:round; stroke-linejoin:round;">
<text x="-96.8520" y="-1.1188"
textLength="0.4500" font-size="2.0000" lengthAdjust="spacingAndGlyphs"
text-anchor="start" opacity="0"></text>
<g class="stroked-text"><desc></desc>
</g></g>
<g style="fill:#000000; fill-opacity:0.0; 
stroke:#000000; stroke-width:0.0212; stroke-opacity:1; 
stroke-linecap:round; stroke-linejoin:round;">
</g>
<g style="fill:#000000; fill-opacity:0.0; 
stroke:#000000; stroke-width:0.1500; stroke-opacity:1; 
stroke-linecap:round; stroke-linejoin:round;">
<path d="M-77.8520 21.6312
L-77.8520 24.6312
" />
</g>
<g style="fill:#000000; fill-opacity:0.0; 
stroke:#000000; stroke-width:0.0212; stroke-opacity:1; 
stroke-linecap:round; stroke-linejoin:round;">
</g>
<g style="fill:#000000; fill-opacity:0.0; 
stroke:#000000; stroke-width:0.1500; stroke-opacity:1; 
stroke-linecap:round; stroke-linejoin:round;">
<path d="M-13.8520 21.6312
L-13.8520 28.1312
" />
<g >
</g>
<g >
</g>
<g >
</g>
<g >
</g>
<g >
</g>
<g >
</g>
<g >
</g>
<g >
</g>
<g >
</g>
<g >
</g>
<g >
</g>
<g >
</g>
<g >
</g>
<g >
</g>
<g >
</g>
<g >
</g>
<g >
</g>
<g >
</g>
<g >
</g>
</g>
<g style="fill:#000000; fill-opacity:0.0; 
stroke:#000000; stroke-width:0.1500; stroke-opacity:1; 
stroke-linecap:round; stroke-linejoin:round;">
<g >
</g>
<g >
</g>
<g >
</g>
<g >
</g>
<g >
</g>
<g >
</g>
<g >
</g>
<g >
</g>
<g >
</g>
<g >
</g>
<g >
</g>
<g >
</g>
<g >
</g>
<g >
</g>
<g >
</g>
<g >
</g>
<g >
</g>
<g >
</g>
<g >
</g>
</g>
<g style="fill:#FFFFFF; fill-opacity:0.0; 
stroke:#FFFFFF; stroke-width:0.1500; stroke-opacity:1; 
stroke-linecap:round; stroke-linejoin:round;">
</g>
<g style="fill:#FFFFFF; fill-opacity:1.0000; 
stroke:#FFFFFF; stroke-width:0.0000; stroke-opacity:1; 
stroke-linecap:round; stroke-linejoin:round;">
<circle cx="9.3539" cy="18.2535" r="0.1500" /> 
</g>
<g style="fill:#FFFFFF; fill-opacity:1.0000; 
stroke:#FFFFFF; stroke-width:0.0212; stroke-opacity:1; 
stroke-linecap:round; stroke-linejoin:round;">
</g>
<g style="fill:#FFFFFF; fill-opacity:1.0000; 
stroke:#FFFFFF; stroke-width:0.0000; stroke-opacity:1; 
stroke-linecap:round; stroke-linejoin:round;">
<circle cx="10.2983" cy="14.7632" r="0.1500" /> 
</g>
<g style="fill:#FFFFFF; fill-opacity:1.0000; 
stroke:#FFFFFF; stroke-width:0.0212; stroke-opacity:1; 
stroke-linecap:round; stroke-linejoin:round;">
</g>
<g style="fill:#FFFFFF; fill-opacity:1.0000; 
stroke:#FFFFFF; stroke-width:0.0000; stroke-opacity:1; 
stroke-linecap:round; stroke-linejoin:round;">
<circle cx="10.7414" cy="18.2536" r="0.1500" /> 
</g>
<g style="fill:#FFFFFF; fill-opacity:1.0000; 
stroke:#FFFFFF; stroke-width:0.0212; stroke-opacity:1; 
stroke-linecap:round; stroke-linejoin:round;">
</g>
<g style="fill:#FFFFFF; fill-opacity:1.0000; 
stroke:#FFFFFF; stroke-width:0.0000; stroke-opacity:1; 
stroke-linecap:round; stroke-linejoin:round;">
<circle cx="17.0514" cy="19.5296" r="0.1500" /> 
</g>
<g style="fill:#FFFFFF; fill-opacity:1.0000; 
stroke:#FFFFFF; stroke-width:0.0212; stroke-opacity:1; 
stroke-linecap:round; stroke-linejoin:round;">
</g>
<g style="fill:#FFFFFF; fill-opacity:1.0000; 
stroke:#FFFFFF; stroke-width:0.0000; stroke-opacity:1; 
stroke-linecap:round; stroke-linejoin:round;">
<circle cx="12.7210" cy="21.0599" r="0.1500" /> 
</g>
<g style="fill:#FFFFFF; fill-opacity:1.0000; 
stroke:#FFFFFF; stroke-width:0.0212; stroke-opacity:1; 
stroke-linecap:round; stroke-linejoin:round;">
</g>
<g style="fill:#FFFFFF; fill-opacity:1.0000; 
stroke:#FFFFFF; stroke-width:0.0000; stroke-opacity:1; 
stroke-linecap:round; stroke-linejoin:round;">
<circle cx="2.5093" cy="17.8853" r="0.1500" /> 
</g>
<g style="fill:#FFFFFF; fill-opacity:1.0000; 
stroke:#FFFFFF; stroke-width:0.0212; stroke-opacity:1; 
stroke-linecap:round; stroke-linejoin:round;">
</g>
<g style="fill:#FFFFFF; fill-opacity:1.0000; 
stroke:#FFFFFF; stroke-width:0.0000; stroke-opacity:1; 
stroke-linecap:round; stroke-linejoin:round;">
<circle cx="9.7287" cy="24.7761" r="0.1500" /> 
</g>
<g style="fill:#FFFFFF; fill-opacity:1.0000; 
stroke:#FFFFFF; stroke-width:0.0212; stroke-opacity:1; 
stroke-linecap:round; stroke-linejoin:round;">
</g>
<g style="fill:#FFFFFF; fill-opacity:1.0000; 
stroke:#FFFFFF; stroke-width:0.0000; stroke-opacity:1; 
stroke-linecap:round; stroke-linejoin:round;">
<circle cx="19.0480" cy="37.7500" r="1.1000" /> 
</g>
<g style="fill:#FFFFFF; fill-opacity:1.0000; 
stroke:#FFFFFF; stroke-width:0.0212; stroke-opacity:1; 
stroke-linecap:round; stroke-linejoin:round;">
</g>
<g style="fill:#FFFFFF; fill-opacity:1.0000; 
stroke:#FFFFFF; stroke-width:0.0000; stroke-opacity:1; 
stroke-linecap:round; stroke-linejoin:round;">
<circle cx="14.8480" cy="37.7500" r="1.1000" /> 
</g>
<g style="fill:#FFFFFF; fill-opacity:1.0000; 
stroke:#FFFFFF; stroke-width:0.0212; stroke-opacity:1; 
stroke-linecap:round; stroke-linejoin:round;">
</g>
<g style="fill:#FFFFFF; fill-opacity:1.0000; 
stroke:#FFFFFF; stroke-width:0.0000; stroke-opacity:1; 
stroke-linecap:round; stroke-linejoin:round;">
<circle cx="10.6480" cy="37.7500" r="1.1000" /> 
</g>
<g style="fill:#FFFFFF; fill-opacity:1.0000; 
stroke:#FFFFFF; stroke-width:0.0212; stroke-opacity:1; 
stroke-linecap:round; stroke-linejoin:round;">
</g>
<g style="fill:#FFFFFF; fill-opacity:1.0000; 
stroke:#FFFFFF; stroke-width:0.0000; stroke-opacity:1; 
stroke-linecap:round; stroke-linejoin:round;">
<circle cx="6.4480" cy="37.7500" r="1.1000" /> 
</g>
<g style="fill:#FFFFFF; fill-opacity:1.0000; 
stroke:#FFFFFF; stroke-width:0.0212; stroke-opacity:1; 
stroke-linecap:round; stroke-linejoin:round;">
</g>
<g style="fill:#FFFFFF; fill-opacity:1.0000; 
stroke:#FFFFFF; stroke-width:0.0000; stroke-opacity:1; 
stroke-linecap:round; stroke-linejoin:round;">
<circle cx="2.2480" cy="37.7500" r="1.1000" /> 
</g>
<g style="fill:#FFFFFF; fill-opacity:1.0000; 
stroke:#FFFFFF; stroke-width:0.0212; stroke-opacity:1; 
stroke-linecap:round; stroke-linejoin:round;">
</g>
<g style="fill:#FFFFFF; fill-opacity:1.0000; 
stroke:#FFFFFF; stroke-width:0.0000; stroke-opacity:1; 
stroke-linecap:round; stroke-linejoin:round;">
<circle cx="19.0480" cy="27.5500" r="0.4250" /> 
</g>
<g style="fill:#FFFFFF; fill-opacity:1.0000; 
stroke:#FFFFFF; stroke-width:0.0212; stroke-opacity:1; 
stroke-linecap:round; stroke-linejoin:round;">
</g>
<g style="fill:#FFFFFF; fill-opacity:1.0000; 
stroke:#FFFFFF; stroke-width:0.0000; stroke-opacity:1; 
stroke-linecap:round; stroke-linejoin:round;">
<circle cx="14.8480" cy="27.5500" r="0.4250" /> 
</g>
<g style="fill:#FFFFFF; fill-opacity:1.0000; 
stroke:#FFFFFF; stroke-width:0.0212; stroke-opacity:1; 
stroke-linecap:round; stroke-linejoin:round;">
</g>
<g style="fill:#FFFFFF; fill-opacity:1.0000; 
stroke:#FFFFFF; stroke-width:0.0000; stroke-opacity:1; 
stroke-linecap:round; stroke-linejoin:round;">
<circle cx="10.6480" cy="27.5500" r="0.4250" /> 
</g>
<g style="fill:#FFFFFF; fill-opacity:1.0000; 
stroke:#FFFFFF; stroke-width:0.0212; stroke-opacity:1; 
stroke-linecap:round; stroke-linejoin:round;">
</g>
<g style="fill:#FFFFFF; fill-opacity:1.0000; 
stroke:#FFFFFF; stroke-width:0.0000; stroke-opacity:1; 
stroke-linecap:round; stroke-linejoin:round;">
<circle cx="6.4480" cy="27.5500" r="0.4250" /> 
</g>
<g style="fill:#FFFFFF; fill-opacity:1.0000; 
stroke:#FFFFFF; stroke-width:0.0212; stroke-opacity:1; 
stroke-linecap:round; stroke-linejoin:round;">
</g>
<g style="fill:#FFFFFF; fill-opacity:1.0000; 
stroke:#FFFFFF; stroke-width:0.0000; stroke-opacity:1; 
stroke-linecap:round; stroke-linejoin:round;">
<circle cx="2.2480" cy="27.5500" r="0.4250" /> 
</g>
<g style="fill:#FFFFFF; fill-opacity:1.0000; 
stroke:#FFFFFF; stroke-width:0.0212; stroke-opacity:1; 
stroke-linecap:round; stroke-linejoin:round;">
</g>
<g style="fill:#FFFFFF; fill-opacity:1.0000; 
stroke:#FFFFFF; stroke-width:0.0000; stroke-opacity:1; 
stroke-linecap:round; stroke-linejoin:round;">
<circle cx="10.3680" cy="5.5500" r="0.4000" /> 
</g>
<g style="fill:#FFFFFF; fill-opacity:1.0000; 
stroke:#FFFFFF; stroke-width:0.0212; stroke-opacity:1; 
stroke-linecap:round; stroke-linejoin:round;">
</g>
<g style="fill:#FFFFFF; fill-opacity:1.0000; 
stroke:#FFFFFF; stroke-width:0.0000; stroke-opacity:1; 
stroke-linecap:round; stroke-linejoin:round;">
<circle cx="19.0480" cy="3.0500" r="1.1000" /> 
</g>
<g style="fill:#FFFFFF; fill-opacity:1.0000; 
stroke:#FFFFFF; stroke-width:0.0212; stroke-opacity:1; 
stroke-linecap:round; stroke-linejoin:round;">
</g>
<g style="fill:#FFFFFF; fill-opacity:1.0000; 
stroke:#FFFFFF; stroke-width:0.0000; stroke-opacity:1; 
stroke-linecap:round; stroke-linejoin:round;">
<circle cx="3.0480" cy="3.0500" r="1.1000" /> 
</g>
<g style="fill:#FFFFFF; fill-opacity:1.0000; 
stroke:#FFFFFF; stroke-width:0.0212; stroke-opacity:1; 
stroke-linecap:round; stroke-linejoin:round;">
</g>
<g style="fill:#000000; fill-opacity:1.0000; 
stroke:#000000; stroke-width:0.0212; stroke-opacity:1; 
stroke-linecap:round; stroke-linejoin:round;">
<g >
</g>
<g >
</g>
<g style="fill:#4D7FC4; fill-opacity:1.0000; 
stroke:#4D7FC4; stroke-width:0.0212; stroke-opacity:1; 
stroke-linecap:round; stroke-linejoin:round;">
</g>
<g style="fill:#4D7FC4; fill-opacity:1.0000; 
stroke:#4D7FC4; stroke-width:0.0000; stroke-opacity:1; 
stroke-linecap:round; stroke-linejoin:round;">
<path style="fill:#4D7FC4; fill-opacity:1.0000; 
stroke:#4D7FC4; stroke-width:0.0000; stroke-opacity:1; 
stroke-linecap:round; stroke-linejoin:round;fill-rule:evenodd;"
d="M 19.9730,26.8750
19.9540,26.7793
19.8998,26.6982
19.8187,26.6440
19.7230,26.6250
18.3730,26.6250
18.2773,26.6440
18.1962,26.6982
18.1420,26.7793
18.1230,26.8750
18.1230,28.2250
18.1420,28.3207
18.1962,28.4018
18.2773,28.4560
18.3730,28.4750
19.7230,28.4750
19.8187,28.4560
19.8998,28.4018
19.9540,28.3207
19.9730,28.2250
Z" /> 
<circle cx="14.8480" cy="27.5500" r="0.9250" /> 
</g>
<g style="fill:#4D7FC4; fill-opacity:1.0000; 
stroke:#4D7FC4; stroke-width:0.0212; stroke-opacity:1; 
stroke-linecap:round; stroke-linejoin:round;">
</g>
<g style="fill:#4D7FC4; fill-opacity:1.0000; 
stroke:#4D7FC4; stroke-width:0.0000; stroke-opacity:1; 
stroke-linecap:round; stroke-linejoin:round;">
<circle cx="10.6480" cy="27.5500" r="0.9250" /> 
</g>
<g style="fill:#4D7FC4; fill-opacity:1.0000; 
stroke:#4D7FC4; stroke-width:0.0212; stroke-opacity:1; 
stroke-linecap:round; stroke-linejoin:round;">
</g>
<g style="fill:#4D7FC4; fill-opacity:1.0000; 
stroke:#4D7FC4; stroke-width:0.0000; stroke-opacity:1; 
stroke-linecap:round; stroke-linejoin:round;">
<circle cx="6.4480" cy="27.5500" r="0.9250" /> 
</g>
<g style="fill:#4D7FC4; fill-opacity:1.0000; 
stroke:#4D7FC4; stroke-width:0.0212; stroke-opacity:1; 
stroke-linecap:round; stroke-linejoin:round;">
</g>
<g style="fill:#4D7FC4; fill-opacity:1.0000; 
stroke:#4D7FC4; stroke-width:0.0000; stroke-opacity:1; 
stroke-linecap:round; stroke-linejoin:round;">
<circle cx="2.2480" cy="27.5500" r="0.9250" /> 
</g>
<g style="fill:#4D7FC4; fill-opacity:1.0000; 
stroke:#4D7FC4; stroke-width:0.0212; stroke-opacity:1; 
stroke-linecap:round; stroke-linejoin:round;">
</g>
<g >
</g>
<g >
</g>
<g >
</g>
<g >
</g>
<g >
</g>
<g >
</g>
<g style="fill:#4D7FC4; fill-opacity:1.0000; 
stroke:#4D7FC4; stroke-width:0.0212; stroke-opacity:1; 
stroke-linecap:round; stroke-linejoin:round;">
</g>
<g style="fill:#4D7FC4; fill-opacity:1.0000; 
stroke:#4D7FC4; stroke-width:0.0000; stroke-opacity:1; 
stroke-linecap:round; stroke-linejoin:round;">
<circle cx="19.0480" cy="3.0500" r="2.0000" /> 
</g>
<g style="fill:#4D7FC4; fill-opacity:1.0000; 
stroke:#4D7FC4; stroke-width:0.0212; stroke-opacity:1; 
stroke-linecap:round; stroke-linejoin:round;">
</g>
<g >
</g>
<g style="fill:#4D7FC4; fill-opacity:1.0000; 
stroke:#4D7FC4; stroke-width:0.0212; stroke-opacity:1; 
stroke-linecap:round; stroke-linejoin:round;">
</g>
<g style="fill:#4D7FC4; fill-opacity:1.0000; 
stroke:#4D7FC4; stroke-width:0.0000; stroke-opacity:1; 
stroke-linecap:round; stroke-linejoin:round;">
<circle cx="3.0480" cy="3.0500" r="2.0000" /> 
</g>
<g style="fill:#4D7FC4; fill-opacity:1.0000; 
stroke:#4D7FC4; stroke-width:0.0212; stroke-opacity:1; 
stroke-linecap:round; stroke-linejoin:round;">
</g>
<g >
</g>
<g >
</g>
<g >
</g>
<g >
</g>
<g >
</g>
<g >
</g>
<g >
</g>
<g >
</g>
<g style="fill:#ECECEC; fill-opacity:1.0000; 
stroke:#ECECEC; stroke-width:0.0212; stroke-opacity:1; 
stroke-linecap:round; stroke-linejoin:round;">
</g>
<g style="fill:#ECECEC; fill-opacity:1.0000; 
stroke:#ECECEC; stroke-width:0.0000; stroke-opacity:1; 
stroke-linecap:round; stroke-linejoin:round;">
<circle cx="9.3539" cy="18.2535" r="0.3000" /> 
</g>
<g style="fill:#ECECEC; fill-opacity:1.0000; 
stroke:#ECECEC; stroke-width:0.0212; stroke-opacity:1; 
stroke-linecap:round; stroke-linejoin:round;">
</g>
<g style="fill:#ECECEC; fill-opacity:1.0000; 
stroke:#ECECEC; stroke-width:0.0000; stroke-opacity:1; 
stroke-linecap:round; stroke-linejoin:round;">
<circle cx="10.2983" cy="14.7632" r="0.3000" /> 
</g>
<g style="fill:#ECECEC; fill-opacity:1.0000; 
stroke:#ECECEC; stroke-width:0.0212; stroke-opacity:1; 
stroke-linecap:round; stroke-linejoin:round;">
</g>
<g style="fill:#ECECEC; fill-opacity:1.0000; 
stroke:#ECECEC; stroke-width:0.0000; stroke-opacity:1; 
stroke-linecap:round; stroke-linejoin:round;">
<circle cx="10.7414" cy="18.2536" r="0.3000" /> 
</g>
<g style="fill:#ECECEC; fill-opacity:1.0000; 
stroke:#ECECEC; stroke-width:0.0212; stroke-opacity:1; 
stroke-linecap:round; stroke-linejoin:round;">
</g>
<g style="fill:#ECECEC; fill-opacity:1.0000; 
stroke:#ECECEC; stroke-width:0.0000; stroke-opacity:1; 
stroke-linecap:round; stroke-linejoin:round;">
<circle cx="17.0514" cy="19.5296" r="0.3000" /> 
</g>
<g style="fill:#ECECEC; fill-opacity:1.0000; 
stroke:#ECECEC; stroke-width:0.0212; stroke-opacity:1; 
stroke-linecap:round; stroke-linejoin:round;">
</g>
<g style="fill:#ECECEC; fill-opacity:1.0000; 
stroke:#ECECEC; stroke-width:0.0000; stroke-opacity:1; 
stroke-linecap:round; stroke-linejoin:round;">
<circle cx="12.7210" cy="21.0599" r="0.3000" /> 
</g>
<g style="fill:#ECECEC; fill-opacity:1.0000; 
stroke:#ECECEC; stroke-width:0.0212; stroke-opacity:1; 
stroke-linecap:round; stroke-linejoin:round;">
</g>
<g style="fill:#ECECEC; fill-opacity:1.0000; 
stroke:#ECECEC; stroke-width:0.0000; stroke-opacity:1; 
stroke-linecap:round; stroke-linejoin:round;">
<circle cx="2.5093" cy="17.8853" r="0.3000" /> 
</g>
<g style="fill:#ECECEC; fill-opacity:1.0000; 
stroke:#ECECEC; stroke-width:0.0212; stroke-opacity:1; 
stroke-linecap:round; stroke-linejoin:round;">
</g>
<g style="fill:#ECECEC; fill-opacity:1.0000; 
stroke:#ECECEC; stroke-width:0.0000; stroke-opacity:1; 
stroke-linecap:round; stroke-linejoin:round;">
<circle cx="9.7287" cy="24.7761" r="0.3000" /> 
</g>
<g style="fill:#ECECEC; fill-opacity:1.0000; 
stroke:#ECECEC; stroke-width:0.0212; stroke-opacity:1; 
stroke-linecap:round; stroke-linejoin:round;">
</g>
<g >
</g>
<g style="fill:#4D7FC4; fill-opacity:1.0000; 
stroke:#4D7FC4; stroke-width:0.0212; stroke-opacity:1; 
stroke-linecap:round; stroke-linejoin:round;">
</g>
<g style="fill:#4D7FC4; fill-opacity:1.0000; 
stroke:#4D7FC4; stroke-width:0.2000; stroke-opacity:1; 
stroke-linecap:round; stroke-linejoin:round;">
</g>
<g style="fill:#4D7FC4; fill-opacity:0.0; 
stroke:#4D7FC4; stroke-width:0.2000; stroke-opacity:1; 
stroke-linecap:round; stroke-linejoin:round;">
<path d="M9.3539 18.2535
L9.3539 16.7695
" />
<path d="M9.3539 18.2535
L9.3539 15.7076
" />
<path d="M9.3539 15.7076
L10.2983 14.7632
" />
<path d="M9.3539 16.7695
L9.3539 18.2535
" />
<path d="M2.2480 27.5500
L3.5506 26.2474
" />
<path d="M19.0480 3.0500
L3.0480 3.0500
" />
<path d="M3.5506 26.2474
L13.5454 26.2474
" />
<path d="M13.5454 26.2474
L14.8480 27.5500
" />
<path d="M17.0514 19.5296
L12.0174 19.5296
" />
<path d="M12.0174 19.5296
L10.7414 18.2536
" />
<path d="M19.0480 27.5500
L12.7210 21.2230
" />
<path d="M12.7210 21.2230
L12.7210 21.0599
" />
<path d="M2.8379 17.8853
L2.5093 17.8853
" />
<path d="M2.5093 17.8853
L2.6343 17.8853
" />
<path d="M9.7287 24.7761
L2.8379 17.8853
" />
<path d="M2.6343 17.8853
L2.5093 17.8853
" />
</g>
<g >
</g>
<g style="fill:#4D7FC4; fill-opacity:0.0; 
stroke:#4D7FC4; stroke-width:0.2000; stroke-opacity:1; 
stroke-linecap:round; stroke-linejoin:round;">
<g >
</g>
<g style="fill:#4D7FC4; fill-opacity:1.0000; 
stroke:#4D7FC4; stroke-width:0.0000; stroke-opacity:1; 
stroke-linecap:round; stroke-linejoin:round;">
<path style="fill:#4D7FC4; fill-opacity:1.0000; 
stroke:#4D7FC4; stroke-width:0.0000; stroke-opacity:1; 
stroke-linecap:round; stroke-linejoin:round;fill-rule:evenodd;"
d="M 2.0445,0.3508
1.8132,0.3673
1.7992,0.3693
1.5761,0.4178
1.5626,0.4218
1.4254,0.4730
1.3486,0.5016
1.3358,0.5075
1.1354,0.6169
1.1235,0.6245
0.9407,0.7614
0.9301,0.7706
0.7686,0.9321
0.7594,0.9427
0.6762,1.0539
0.6225,1.1255
0.6149,1.1374
0.5055,1.3378
0.4996,1.3506
0.4945,1.3643
0.4198,1.5646
0.4158,1.5781
0.3673,1.8012
0.3653,1.8152
0.3488,2.0465
0.3485,2.0535
0.3485,38.0465
0.3488,38.0535
0.3653,38.2848
0.3673,38.2988
0.4158,38.5219
0.4198,38.5354
0.4996,38.7494
0.5055,38.7622
0.6149,38.9626
0.6225,38.9745
0.7594,39.1573
0.7686,39.1679
0.9301,39.3294
0.9407,39.3386
1.1235,39.4755
1.1354,39.4831
1.3358,39.5925
1.3486,39.5984
1.5626,39.6782
1.5761,39.6822
1.7992,39.7307
1.8132,39.7327
2.0169,39.7473
2.0445,39.7492
2.0515,39.7495
20.0445,39.7495
20.0515,39.7492
20.0815,39.7471
20.2828,39.7327
20.2968,39.7307
20.5199,39.6822
20.5334,39.6782
20.7474,39.5984
20.7602,39.5925
20.9606,39.4831
20.9725,39.4755
21.1553,39.3386
21.1659,39.3294
21.3274,39.1679
21.3366,39.1573
21.4365,39.0239
21.4735,38.9745
21.4811,38.9626
21.5905,38.7622
21.5964,38.7494
21.6762,38.5354
21.6802,38.5219
21.7287,38.2988
21.7307,38.2848
21.7472,38.0535
21.7475,38.0465
21.7475,37.7500
20.4037,37.7500
20.3831,37.9854
20.3219,38.2137
20.2220,38.4278
20.2220,38.4278
20.1562,38.5219
20.0865,38.6214
19.9194,38.7885
19.7258,38.9240
19.7258,38.9240
19.7258,38.9240
19.7258,38.9240
19.5117,39.0239
19.5117,39.0239
19.2834,39.0851
19.2834,39.0851
19.2834,39.0851
19.1070,39.1005
19.1070,39.1005
18.9890,39.1005
18.8126,39.0851
18.8126,39.0851
18.8126,39.0851
18.5843,39.0239
18.3702,38.9240
18.1766,38.7885
18.0095,38.6214
17.8740,38.4278
17.7741,38.2137
17.7129,37.9854
17.6923,37.7500
16.2037,37.7500
16.1831,37.9854
16.1219,38.2137
16.0220,38.4278
16.0220,38.4278
15.9562,38.5219
15.8865,38.6214
15.7194,38.7885
15.5258,38.9240
15.5258,38.9240
15.5258,38.9240
15.5258,38.9240
15.3117,39.0239
15.3117,39.0239
15.0834,39.0851
15.0834,39.0851
15.0834,39.0851
14.9070,39.1005
14.9070,39.1005
14.7890,39.1005
14.6126,39.0851
14.6126,39.0851
14.6126,39.0851
14.3843,39.0239
14.1702,38.9240
13.9766,38.7885
13.8095,38.6214
13.6740,38.4278
13.5741,38.2137
13.5129,37.9854
13.4923,37.7500
12.0037,37.7500
11.9831,37.9854
11.9219,38.2137
11.8220,38.4278
11.8220,38.4278
11.7562,38.5219
11.6865,38.6214
11.5194,38.7885
11.3258,38.9240
11.3258,38.9240
11.3258,38.9240
11.3258,38.9240
11.1117,39.0239
11.1117,39.0239
10.8834,39.0851
10.8834,39.0851
10.8834,39.0851
10.7070,39.1005
10.7070,39.1005
10.5890,39.1005
10.4126,39.0851
10.4126,39.0851
10.4126,39.0851
10.1843,39.0239
9.9702,38.9240
9.7766,38.7885
9.6095,38.6214
9.4740,38.4278
9.3741,38.2137
9.3129,37.9854
9.2923,37.7500
7.8037,37.7500
7.7831,37.9854
7.7219,38.2137
7.6220,38.4278
7.6220,38.4278
7.5562,38.5219
7.4865,38.6214
7.3194,38.7885
7.1258,38.9240
7.1258,38.9240
7.1258,38.9240
7.1258,38.9240
6.9117,39.0239
6.9117,39.0239
6.6834,39.0851
6.6834,39.0851
6.6834,39.0851
6.5070,39.1005
6.5070,39.1005
6.3890,39.1005
6.2126,39.0851
6.2126,39.0851
6.2126,39.0851
5.9843,39.0239
5.7702,38.9240
5.5766,38.7885
5.4095,38.6214
5.2740,38.4278
5.1741,38.2137
5.1129,37.9854
5.0923,37.7500
3.6037,37.7500
3.5831,37.9854
3.5219,38.2137
3.4220,38.4278
3.4220,38.4278
3.3562,38.5219
3.2865,38.6214
3.1194,38.7885
2.9258,38.9240
2.9258,38.9240
2.9258,38.9240
2.9258,38.9240
2.7117,39.0239
2.7117,39.0239
2.4834,39.0851
2.4834,39.0851
2.4834,39.0851
2.3070,39.1005
2.3070,39.1005
2.1890,39.1005
2.0126,39.0851
2.0126,39.0851
2.0126,39.0851
1.7843,39.0239
1.5702,38.9240
1.3766,38.7885
1.2095,38.6214
1.0740,38.4278
0.9741,38.2137
0.9129,37.9854
0.8923,37.7500
0.9129,37.5146
0.9741,37.2863
1.0740,37.0722
1.2095,36.8786
1.3766,36.7115
1.3766,36.7115
1.3766,36.7115
1.5702,36.5760
1.5702,36.5760
1.7843,36.4761
1.7843,36.4761
1.8604,36.4557
2.0126,36.4149
2.0126,36.4149
2.0126,36.4149
2.1890,36.3995
2.1890,36.3995
2.3070,36.3995
2.3070,36.3995
2.4834,36.4149
2.7117,36.4761
2.9258,36.5760
2.9258,36.5760
3.1194,36.7115
3.2865,36.8786
3.4220,37.0722
3.5219,37.2863
3.5831,37.5146
3.6037,37.7500
3.6037,37.7500
5.0923,37.7500
5.0923,37.7500
5.1129,37.5146
5.1741,37.2863
5.2740,37.0722
5.4095,36.8786
5.5766,36.7115
5.5766,36.7115
5.5766,36.7115
5.7702,36.5760
5.7702,36.5760
5.9843,36.4761
5.9843,36.4761
6.0604,36.4557
6.2126,36.4149
6.2126,36.4149
6.2126,36.4149
6.3890,36.3995
6.3890,36.3995
6.5070,36.3995
6.5070,36.3995
6.6834,36.4149
6.9117,36.4761
7.1258,36.5760
7.1258,36.5760
7.3194,36.7115
7.4865,36.8786
7.6220,37.0722
7.7219,37.2863
7.7831,37.5146
7.8037,37.7500
7.8037,37.7500
9.2923,37.7500
9.2923,37.7500
9.3129,37.5146
9.3741,37.2863
9.4740,37.0722
9.6095,36.8786
9.7766,36.7115
9.7766,36.7115
9.7766,36.7115
9.9702,36.5760
9.9702,36.5760
10.1843,36.4761
10.1843,36.4761
10.2604,36.4557
10.4126,36.4149
10.4126,36.4149
10.4126,36.4149
10.5890,36.3995
10.5890,36.3995
10.7070,36.3995
10.7070,36.3995
10.8834,36.4149
11.1117,36.4761
11.3258,36.5760
11.3258,36.5760
11.5194,36.7115
11.6865,36.8786
11.8220,37.0722
11.9219,37.2863
11.9831,37.5146
12.0037,37.7500
12.0037,37.7500
13.4923,37.7500
13.4923,37.7500
13.5129,37.5146
13.5741,37.2863
13.6740,37.0722
13.8095,36.8786
13.9766,36.7115
13.9766,36.7115
13.9766,36.7115
14.1702,36.5760
14.1702,36.5760
14.3843,36.4761
14.3843,36.4761
14.4604,36.4557
14.6126,36.4149
14.6126,36.4149
14.6126,36.4149
14.7890,36.3995
14.7890,36.3995
14.9070,36.3995
14.9070,36.3995
15.0834,36.4149
15.3117,36.4761
15.5258,36.5760
15.5258,36.5760
15.7194,36.7115
15.8865,36.8786
16.0220,37.0722
16.1219,37.2863
16.1831,37.5146
16.2037,37.7500
16.2037,37.7500
17.6923,37.7500
17.6923,37.7500
17.7129,37.5146
17.7741,37.2863
17.8740,37.0722
18.0095,36.8786
18.1766,36.7115
18.1766,36.7115
18.1766,36.7115
18.3702,36.5760
18.3702,36.5760
18.5843,36.4761
18.5843,36.4761
18.6604,36.4557
18.8126,36.4149
18.8126,36.4149
18.8126,36.4149
18.9890,36.3995
18.9890,36.3995
19.1070,36.3995
19.1070,36.3995
19.2834,36.4149
19.5117,36.4761
19.7258,36.5760
19.7258,36.5760
19.9194,36.7115
20.0865,36.8786
20.2220,37.0722
20.3219,37.2863
20.3831,37.5146
20.4037,37.7500
20.4037,37.7500
21.7475,37.7500
21.7475,28.2729
20.2235,28.2729
20.2235,28.2729
20.2171,28.3325
20.2171,28.3325
20.1668,28.4673
20.1483,28.4921
20.0805,28.5825
20.0805,28.5825
20.0805,28.5825
19.9653,28.6688
19.8305,28.7191
19.8305,28.7191
19.8305,28.7191
19.7709,28.7255
18.3251,28.7255
18.2655,28.7191
18.1754,28.6855
18.1307,28.6688
18.1307,28.6688
18.1307,28.6688
18.0155,28.5825
17.9292,28.4673
17.8789,28.3325
17.8725,28.2729
17.8725,27.5500
16.0777,27.5500
16.0590,27.7635
16.0035,27.9706
15.9129,28.1648
15.8295,28.2840
15.2475,27.7020
15.1961,27.8029
15.1009,27.8981
15.0000,27.9495
15.5820,28.5315
15.4628,28.6149
15.2686,28.7055
15.0615,28.7610
14.8480,28.7797
14.8480,28.7797
14.6345,28.7610
14.4274,28.7055
14.2332,28.6149
14.2332,28.6149
14.1140,28.5315
14.6960,27.9495
14.5951,27.8981
14.4999,27.8029
14.4485,27.7020
13.8665,28.2840
13.7831,28.1648
13.7831,28.1648
13.6925,27.9706
13.6370,27.7635
13.6183,27.5500
13.6183,27.5500
11.8285,27.5500
11.8084,27.7669
11.7488,27.9765
11.6517,28.1715
11.5204,28.3453
11.3594,28.4921
11.1742,28.6068
10.9711,28.6855
10.7569,28.7255
10.5391,28.7255
10.3249,28.6855
10.1218,28.6068
9.9366,28.4921
9.7756,28.3453
9.6443,28.1715
9.5472,27.9765
9.4876,27.7669
9.4675,27.5500
7.6285,27.5500
7.6084,27.7669
7.5488,27.9765
7.4517,28.1715
7.3204,28.3453
7.1594,28.4921
6.9742,28.6068
6.7711,28.6855
6.5569,28.7255
6.3391,28.7255
6.1249,28.6855
5.9218,28.6068
5.7366,28.4921
5.5756,28.3453
5.4443,28.1715
5.3472,27.9765
5.2876,27.7669
5.2675,27.5500
3.4777,27.5500
3.4590,27.7635
3.4035,27.9706
3.3129,28.1648
3.2295,28.2840
2.6475,27.7020
2.5961,27.8029
2.5009,27.8981
2.4000,27.9495
2.9820,28.5315
2.8628,28.6149
2.6686,28.7055
2.4615,28.7610
2.2480,28.7797
2.2480,28.7797
2.0345,28.7610
1.8274,28.7055
1.6332,28.6149
1.6332,28.6149
1.5140,28.5315
2.0960,27.9495
1.9951,27.8981
1.8999,27.8029
1.8485,27.7020
1.2665,28.2840
1.1831,28.1648
1.1831,28.1648
1.0925,27.9706
1.0370,27.7635
1.0183,27.5500
1.0183,27.5500
1.0370,27.3365
1.0925,27.1294
1.1831,26.9352
1.2665,26.8160
1.8485,27.3980
1.8999,27.2971
1.9951,27.2019
2.0960,27.1505
1.5140,26.5685
1.6332,26.4851
1.8274,26.3945
2.0345,26.3390
2.2480,26.3203
2.2480,26.3203
2.4615,26.3390
2.6686,26.3945
2.8628,26.4851
2.8628,26.4851
2.9820,26.5685
2.4000,27.1505
2.5009,27.2019
2.5961,27.2971
2.6475,27.3980
3.2295,26.8160
3.3129,26.9352
3.3129,26.9352
3.4035,27.1294
3.4590,27.3365
3.4777,27.5500
3.4777,27.5500
5.2675,27.5500
5.2675,27.5500
5.2876,27.3331
5.3472,27.1235
5.4443,26.9285
5.5756,26.7547
5.7366,26.6079
5.9218,26.4932
6.1249,26.4145
6.1249,26.4145
6.1249,26.4145
6.3391,26.3745
6.5569,26.3745
6.7711,26.4145
6.8141,26.4312
6.9742,26.4932
7.1594,26.6079
7.1594,26.6079
7.3204,26.7547
7.3204,26.7547
7.3301,26.7675
7.4517,26.9285
7.4517,26.9285
7.5488,27.1235
7.6084,27.3331
7.6084,27.3331
7.6285,27.5500
9.4675,27.5500
9.4876,27.3331
9.5472,27.1235
9.6443,26.9285
9.7756,26.7547
9.9366,26.6079
10.1218,26.4932
10.3249,26.4145
10.3249,26.4145
10.3249,26.4145
10.5391,26.3745
10.7569,26.3745
10.9711,26.4145
11.0141,26.4312
11.1742,26.4932
11.3594,26.6079
11.3594,26.6079
11.5204,26.7547
11.5204,26.7547
11.5301,26.7675
11.6517,26.9285
11.6517,26.9285
11.7488,27.1235
11.8084,27.3331
11.8084,27.3331
11.8285,27.5500
13.6183,27.5500
13.6183,27.5500
13.6370,27.3365
13.6925,27.1294
13.7831,26.9352
13.8665,26.8160
14.4485,27.3980
14.4999,27.2971
14.5951,27.2019
14.6960,27.1505
14.1140,26.5685
14.2332,26.4851
14.4274,26.3945
14.6345,26.3390
14.8480,26.3203
14.8480,26.3203
15.0615,26.3390
15.2686,26.3945
15.4628,26.4851
15.4628,26.4851
15.5820,26.5685
15.0000,27.1505
15.1009,27.2019
15.1961,27.2971
15.2475,27.3980
15.8295,26.8160
15.9129,26.9352
15.9129,26.9352
16.0035,27.1294
16.0590,27.3365
16.0777,27.5500
16.0777,27.5500
17.8725,27.5500
17.8725,26.9112
17.8536,26.8530
17.8435,26.8412
15.7784,24.7761
10.2839,24.7761
10.2650,24.9198
10.2650,24.9198
10.2096,25.0537
10.1213,25.1687
10.0063,25.2570
9.8724,25.3124
9.7287,25.3314
9.5850,25.3124
9.4511,25.2570
9.3361,25.1687
9.2478,25.0537
9.1924,24.9198
9.1734,24.7761
9.1740,24.7719
9.1629,24.7117
9.1459,24.6889
2.8593,18.4023
2.8047,18.3746
2.7514,18.3809
2.6530,18.4216
2.5093,18.4405
2.3656,18.4216
2.2317,18.3662
2.1167,18.2779
2.0284,18.1629
1.9730,18.0290
1.9540,17.8853
1.9573,17.8609
1.9730,17.7416
2.0284,17.6077
2.1167,17.4927
2.2317,17.4044
2.2317,17.4044
2.3656,17.3490
2.3656,17.3490
2.5093,17.3300
2.6530,17.3490
2.6530,17.3490
2.7869,17.4044
2.7869,17.4044
2.9019,17.4927
2.9019,17.4927
2.9268,17.5251
2.9582,17.5519
2.9965,17.5726
3.0002,17.5745
3.0444,17.5961
3.0504,17.6004
3.0562,17.6049
3.0895,17.6411
3.0923,17.6440
9.6415,24.1933
9.6961,24.2210
9.7245,24.2214
9.7287,24.2208
9.7287,24.2208
9.8724,24.2398
9.8724,24.2398
10.0063,24.2952
10.0063,24.2952
10.1213,24.3835
10.1213,24.3835
10.2096,24.4985
10.2096,24.4985
10.2650,24.6324
10.2650,24.6324
10.2839,24.7761
10.2839,24.7761
15.7784,24.7761
12.6251,21.6228
12.5807,21.5971
12.5773,21.5962
12.5773,21.5962
12.4434,21.5408
12.3284,21.4525
12.2401,21.3375
12.1847,21.2036
12.1657,21.0599
12.1847,20.9162
12.2401,20.7823
12.3284,20.6673
12.4434,20.5790
12.4434,20.5790
12.5773,20.5236
12.5773,20.5236
12.7210,20.5046
12.8647,20.5236
12.8647,20.5236
12.9986,20.5790
12.9986,20.5790
13.1136,20.6673
13.1136,20.6673
13.2019,20.7823
13.2019,20.7823
13.2573,20.9162
13.2573,20.9162
13.2762,21.0599
13.2762,21.0599
13.2567,21.2083
13.2679,21.2684
13.2849,21.2912
18.3392,26.3455
18.3937,26.3733
18.4092,26.3745
19.7709,26.3745
19.7709,26.3745
19.7709,26.3745
19.7781,26.3753
19.8305,26.3809
19.8305,26.3809
19.9653,26.4312
20.0805,26.5175
20.0805,26.5175
20.1668,26.6327
20.2171,26.7675
20.2171,26.7675
20.2235,26.8271
20.2235,28.2729
21.7475,28.2729
21.7475,19.5296
17.6066,19.5296
17.5877,19.6733
17.5877,19.6733
17.5461,19.7738
17.5323,19.8072
17.4440,19.9222
17.3290,20.0105
17.1951,20.0659
17.0514,20.0848
16.9077,20.0659
16.7738,20.0105
16.6588,19.9222
16.6580,19.9212
16.6562,19.9188
16.6058,19.8842
16.5776,19.8801
12.0640,19.8801
12.0437,19.8822
12.0418,19.8826
12.0321,19.8846
12.0017,19.8809
11.9895,19.8801
11.9884,19.8801
11.9689,19.8768
11.9648,19.8763
11.9160,19.8702
11.9160,19.8702
11.9090,19.8681
11.9020,19.8657
11.9020,19.8657
11.8587,19.8423
11.8551,19.8404
11.8109,19.8188
11.8109,19.8188
11.8109,19.8188
11.8109,19.8188
11.8049,19.8145
11.7991,19.8100
11.7991,19.8100
11.7991,19.8100
11.7658,19.7738
11.7630,19.7709
10.8286,18.8364
10.7740,18.8087
10.7456,18.8083
10.7414,18.8088
10.5977,18.7899
10.4638,18.7345
10.3488,18.6462
10.2605,18.5312
10.2051,18.3973
10.1861,18.2536
10.2051,18.1099
10.2605,17.9760
10.3488,17.8610
10.4638,17.7727
10.4638,17.7727
10.5977,17.7173
10.5977,17.7173
10.7414,17.6983
10.8851,17.7173
10.8851,17.7173
11.0190,17.7727
11.0190,17.7727
11.1340,17.8610
11.1340,17.8610
11.2223,17.9760
11.2223,17.9760
11.2777,18.1099
11.2777,18.1099
11.2966,18.2536
11.2966,18.2536
11.2961,18.2578
11.3072,18.3180
11.3242,18.3408
12.1336,19.1501
12.1881,19.1779
12.2036,19.1791
16.5776,19.1791
16.6358,19.1602
16.6562,19.1404
16.6588,19.1370
16.6588,19.1370
16.6588,19.1370
16.7738,19.0487
16.7738,19.0487
16.9077,18.9933
16.9077,18.9933
17.0514,18.9743
17.1951,18.9933
17.1951,18.9933
17.3290,19.0487
17.3290,19.0487
17.4440,19.1370
17.4440,19.1370
17.5323,19.2520
17.5323,19.2520
17.5877,19.3859
17.5877,19.3859
17.6066,19.5296
17.6066,19.5296
21.7475,19.5296
21.7475,14.7632
10.8536,14.7632
10.8346,14.9069
10.8346,14.9069
10.7792,15.0408
10.6909,15.1558
10.5759,15.2441
10.4420,15.2995
10.2983,15.3184
10.2941,15.3179
10.2339,15.3290
10.2111,15.3460
9.7334,15.8238
9.7056,15.8783
9.7044,15.8938
9.7044,17.7797
9.7233,17.8379
9.7431,17.8583
9.7465,17.8609
9.8348,17.9759
9.8348,17.9759
9.8902,18.1098
9.8902,18.1098
9.9092,18.2535
9.9092,18.2535
9.8902,18.3972
9.8902,18.3972
9.8348,18.5311
9.7465,18.6461
9.6315,18.7344
9.4976,18.7898
9.3539,18.8087
9.2102,18.7898
9.0763,18.7344
8.9613,18.6461
8.8730,18.5311
8.8176,18.3972
8.7987,18.2535
8.8176,18.1098
8.8730,17.9759
8.9613,17.8609
8.9613,17.8609
8.9613,17.8609
8.9647,17.8583
8.9993,17.8079
9.0034,17.7797
9.0034,15.7542
9.0013,15.7339
8.9989,15.7223
9.0026,15.6919
9.0034,15.6797
9.0034,15.6786
9.0040,15.6752
9.0067,15.6590
9.0072,15.6550
9.0133,15.6062
9.0133,15.6062
9.0154,15.5992
9.0178,15.5922
9.0412,15.5490
9.0431,15.5453
9.0647,15.5011
9.0690,15.4952
9.0735,15.4893
9.0735,15.4893
9.1097,15.4560
9.1126,15.4532
9.7155,14.8504
9.7432,14.7958
9.7436,14.7674
9.7431,14.7632
9.7620,14.6195
9.8174,14.4856
9.9057,14.3706
10.0207,14.2823
10.0207,14.2823
10.1546,14.2269
10.1546,14.2269
10.2983,14.2079
10.4420,14.2269
10.4420,14.2269
10.5759,14.2823
10.5759,14.2823
10.6909,14.3706
10.6909,14.3706
10.7792,14.4856
10.7792,14.4856
10.8346,14.6195
10.8346,14.6195
10.8536,14.7632
10.8536,14.7632
21.7475,14.7632
21.7475,5.5088
11.0224,5.5088
11.0121,5.6729
10.9613,5.8292
10.8732,5.9679
10.7534,6.0804
10.7534,6.0804
10.6731,6.1246
10.6094,6.1596
10.4502,6.2005
10.4502,6.2005
10.3271,6.2005
10.2049,6.1851
10.2049,6.1851
10.2049,6.1851
10.0521,6.1246
9.9192,6.0280
9.8144,5.9013
9.7444,5.7526
9.7136,5.5912
9.7239,5.4271
9.7747,5.2708
9.7747,5.2708
9.7747,5.2708
9.8628,5.1321
9.9826,5.0196
9.9826,5.0196
10.1266,4.9404
10.2858,4.8995
10.2858,4.8995
10.4089,4.8995
10.5311,4.9149
10.5311,4.9149
10.6839,4.9754
10.6839,4.9754
10.8168,5.0720
10.9216,5.1987
10.9916,5.3474
11.0224,5.5088
11.0224,5.5088
21.7475,5.5088
21.7475,3.0500
21.3529,3.0500
21.3332,3.3509
21.2744,3.6466
21.1775,3.9321
21.0441,4.2025
20.8766,4.4532
20.7935,4.5480
19.9397,3.6942
19.8831,3.7736
19.7311,3.9186
19.6933,3.9428
20.5460,4.7955
20.4512,4.8786
20.4512,4.8786
20.2005,5.0461
19.9301,5.1795
19.6446,5.2764
19.3489,5.3352
19.0480,5.3549
18.7471,5.3352
18.4514,5.2764
18.1659,5.1795
17.8955,5.0461
17.6448,4.8786
17.6448,4.8786
17.5500,4.7955
18.4032,3.9423
18.2855,3.8497
18.1533,3.6972
17.3025,4.5480
17.2194,4.4532
17.2194,4.4532
17.0519,4.2025
16.9185,3.9321
16.8216,3.6466
16.7628,3.3509
16.7431,3.0500
5.3529,3.0500
5.3332,3.3509
5.2744,3.6466
5.1775,3.9321
5.0441,4.2025
4.8766,4.4532
4.7935,4.5480
3.9397,3.6942
3.8831,3.7736
3.7311,3.9186
3.6933,3.9428
4.5460,4.7955
4.4512,4.8786
4.4512,4.8786
4.2005,5.0461
3.9301,5.1795
3.6446,5.2764
3.3489,5.3352
3.0480,5.3549
2.7471,5.3352
2.4514,5.2764
2.1659,5.1795
1.8955,5.0461
1.6448,4.8786
1.6448,4.8786
1.5500,4.7955
2.4032,3.9423
2.2855,3.8497
2.1533,3.6972
1.3025,4.5480
1.2194,4.4532
1.2194,4.4532
1.0519,4.2025
0.9185,3.9321
0.8216,3.6466
0.7628,3.3509
0.7431,3.0500
0.7431,3.0500
0.7628,2.7491
0.8216,2.4534
0.9185,2.1679
1.0519,1.8975
1.2194,1.6468
1.3025,1.5520
2.1563,2.4058
2.2129,2.3264
2.3649,2.1814
2.4027,2.1572
1.5500,1.3045
1.6448,1.2214
1.8955,1.0539
2.1659,0.9205
2.4514,0.8236
2.7471,0.7648
3.0480,0.7451
3.3489,0.7648
3.6446,0.8236
3.9301,0.9205
4.2005,1.0539
4.4512,1.2214
4.5460,1.3045
3.6928,2.1577
3.8105,2.2503
3.9427,2.4028
4.7935,1.5520
4.8766,1.6468
5.0441,1.8975
5.1775,2.1679
5.2744,2.4534
5.3332,2.7491
5.3529,3.0500
5.3529,3.0500
16.7431,3.0500
16.7431,3.0500
16.7628,2.7491
16.8216,2.4534
16.9185,2.1679
17.0519,1.8975
17.2194,1.6468
17.3025,1.5520
18.1563,2.4058
18.2129,2.3264
18.3649,2.1814
18.4027,2.1572
17.5500,1.3045
17.6448,1.2214
17.8955,1.0539
18.1659,0.9205
18.4514,0.8236
18.7471,0.7648
19.0480,0.7451
19.3489,0.7648
19.6446,0.8236
19.9301,0.9205
20.2005,1.0539
20.4512,1.2214
20.5460,1.3045
19.6928,2.1577
19.8105,2.2503
19.9427,2.4028
20.7935,1.5520
20.8766,1.6468
21.0441,1.8975
21.1775,2.1679
21.2744,2.4534
21.3332,2.7491
21.3529,3.0500
21.3529,3.0500
21.7475,3.0500
21.7475,2.0535
21.7472,2.0465
21.7435,1.9938
21.7307,1.8152
21.7287,1.8012
21.6924,1.6346
21.6802,1.5781
21.6762,1.5646
21.6015,1.3643
21.5964,1.3506
21.5905,1.3378
21.4811,1.1374
21.4735,1.1255
21.3366,0.9427
21.3274,0.9321
21.1659,0.7706
21.1553,0.7614
20.9725,0.6245
20.9606,0.6169
20.7602,0.5075
20.7474,0.5016
20.5334,0.4218
20.5199,0.4178
20.2968,0.3693
20.2828,0.3673
20.0770,0.3526
20.0515,0.3508
20.0445,0.3505
20.0004,0.3505
2.0956,0.3505
2.0515,0.3505
Z" /> 
</g>
</g>
</g>
<g style="fill:#FFFFFF; fill-opacity:1.0000; 
stroke:#FFFFFF; stroke-width:0.0000; stroke-opacity:1; 
stroke-linecap:round; stroke-linejoin:round;">
<circle cx="9.3539" cy="18.2535" r="0.1500" /> 
</g>
<g style="fill:#FFFFFF; fill-opacity:1.0000; 
stroke:#FFFFFF; stroke-width:0.0212; stroke-opacity:1; 
stroke-linecap:round; stroke-linejoin:round;">
</g>
<g style="fill:#FFFFFF; fill-opacity:1.0000; 
stroke:#FFFFFF; stroke-width:0.0000; stroke-opacity:1; 
stroke-linecap:round; stroke-linejoin:round;">
<circle cx="10.2983" cy="14.7632" r="0.1500" /> 
</g>
<g style="fill:#FFFFFF; fill-opacity:1.0000; 
stroke:#FFFFFF; stroke-width:0.0212; stroke-opacity:1; 
stroke-linecap:round; stroke-linejoin:round;">
</g>
<g style="fill:#FFFFFF; fill-opacity:1.0000; 
stroke:#FFFFFF; stroke-width:0.0000; stroke-opacity:1; 
stroke-linecap:round; stroke-linejoin:round;">
<circle cx="10.7414" cy="18.2536" r="0.1500" /> 
</g>
<g style="fill:#FFFFFF; fill-opacity:1.0000; 
stroke:#FFFFFF; stroke-width:0.0212; stroke-opacity:1; 
stroke-linecap:round; stroke-linejoin:round;">
</g>
<g style="fill:#FFFFFF; fill-opacity:1.0000; 
stroke:#FFFFFF; stroke-width:0.0000; stroke-opacity:1; 
stroke-linecap:round; stroke-linejoin:round;">
<circle cx="17.0514" cy="19.5296" r="0.1500" /> 
</g>
<g style="fill:#FFFFFF; fill-opacity:1.0000; 
stroke:#FFFFFF; stroke-width:0.0212; stroke-opacity:1; 
stroke-linecap:round; stroke-linejoin:round;">
</g>
<g style="fill:#FFFFFF; fill-opacity:1.0000; 
stroke:#FFFFFF; stroke-width:0.0000; stroke-opacity:1; 
stroke-linecap:round; stroke-linejoin:round;">
<circle cx="12.7210" cy="21.0599" r="0.1500" /> 
</g>
<g style="fill:#FFFFFF; fill-opacity:1.0000; 
stroke:#FFFFFF; stroke-width:0.0212; stroke-opacity:1; 
stroke-linecap:round; stroke-linejoin:round;">
</g>
<g style="fill:#FFFFFF; fill-opacity:1.0000; 
stroke:#FFFFFF; stroke-width:0.0000; stroke-opacity:1; 
stroke-linecap:round; stroke-linejoin:round;">
<circle cx="2.5093" cy="17.8853" r="0.1500" /> 
</g>
<g style="fill:#FFFFFF; fill-opacity:1.0000; 
stroke:#FFFFFF; stroke-width:0.0212; stroke-opacity:1; 
stroke-linecap:round; stroke-linejoin:round;">
</g>
<g style="fill:#FFFFFF; fill-opacity:1.0000; 
stroke:#FFFFFF; stroke-width:0.0000; stroke-opacity:1; 
stroke-linecap:round; stroke-linejoin:round;">
<circle cx="9.7287" cy="24.7761" r="0.1500" /> 
</g>
<g style="fill:#FFFFFF; fill-opacity:1.0000; 
stroke:#FFFFFF; stroke-width:0.0212; stroke-opacity:1; 
stroke-linecap:round; stroke-linejoin:round;">
</g>
<g style="fill:#FFFFFF; fill-opacity:1.0000; 
stroke:#FFFFFF; stroke-width:0.0000; stroke-opacity:1; 
stroke-linecap:round; stroke-linejoin:round;">
<circle cx="19.0480" cy="37.7500" r="1.1000" /> 
</g>
<g style="fill:#FFFFFF; fill-opacity:1.0000; 
stroke:#FFFFFF; stroke-width:0.0212; stroke-opacity:1; 
stroke-linecap:round; stroke-linejoin:round;">
</g>
<g style="fill:#FFFFFF; fill-opacity:1.0000; 
stroke:#FFFFFF; stroke-width:0.0000; stroke-opacity:1; 
stroke-linecap:round; stroke-linejoin:round;">
<circle cx="14.8480" cy="37.7500" r="1.1000" /> 
</g>
<g style="fill:#FFFFFF; fill-opacity:1.0000; 
stroke:#FFFFFF; stroke-width:0.0212; stroke-opacity:1; 
stroke-linecap:round; stroke-linejoin:round;">
</g>
<g style="fill:#FFFFFF; fill-opacity:1.0000; 
stroke:#FFFFFF; stroke-width:0.0000; stroke-opacity:1; 
stroke-linecap:round; stroke-linejoin:round;">
<circle cx="10.6480" cy="37.7500" r="1.1000" /> 
</g>
<g style="fill:#FFFFFF; fill-opacity:1.0000; 
stroke:#FFFFFF; stroke-width:0.0212; stroke-opacity:1; 
stroke-linecap:round; stroke-linejoin:round;">
</g>
<g style="fill:#FFFFFF; fill-opacity:1.0000; 
stroke:#FFFFFF; stroke-width:0.0000; stroke-opacity:1; 
stroke-linecap:round; stroke-linejoin:round;">
<circle cx="6.4480" cy="37.7500" r="1.1000" /> 
</g>
<g style="fill:#FFFFFF; fill-opacity:1.0000; 
stroke:#FFFFFF; stroke-width:0.0212; stroke-opacity:1; 
stroke-linecap:round; stroke-linejoin:round;">
</g>
<g style="fill:#FFFFFF; fill-opacity:1.0000; 
stroke:#FFFFFF; stroke-width:0.0000; stroke-opacity:1; 
stroke-linecap:round; stroke-linejoin:round;">
<circle cx="2.2480" cy="37.7500" r="1.1000" /> 
</g>
<g style="fill:#FFFFFF; fill-opacity:1.0000; 
stroke:#FFFFFF; stroke-width:0.0212; stroke-opacity:1; 
stroke-linecap:round; stroke-linejoin:round;">
</g>
<g style="fill:#FFFFFF; fill-opacity:1.0000; 
stroke:#FFFFFF; stroke-width:0.0000; stroke-opacity:1; 
stroke-linecap:round; stroke-linejoin:round;">
<circle cx="19.0480" cy="27.5500" r="0.4250" /> 
</g>
<g style="fill:#FFFFFF; fill-opacity:1.0000; 
stroke:#FFFFFF; stroke-width:0.0212; stroke-opacity:1; 
stroke-linecap:round; stroke-linejoin:round;">
</g>
<g style="fill:#FFFFFF; fill-opacity:1.0000; 
stroke:#FFFFFF; stroke-width:0.0000; stroke-opacity:1; 
stroke-linecap:round; stroke-linejoin:round;">
<circle cx="14.8480" cy="27.5500" r="0.4250" /> 
</g>
<g style="fill:#FFFFFF; fill-opacity:1.0000; 
stroke:#FFFFFF; stroke-width:0.0212; stroke-opacity:1; 
stroke-linecap:round; stroke-linejoin:round;">
</g>
<g style="fill:#FFFFFF; fill-opacity:1.0000; 
stroke:#FFFFFF; stroke-width:0.0000; stroke-opacity:1; 
stroke-linecap:round; stroke-linejoin:round;">
<circle cx="10.6480" cy="27.5500" r="0.4250" /> 
</g>
<g style="fill:#FFFFFF; fill-opacity:1.0000; 
stroke:#FFFFFF; stroke-width:0.0212; stroke-opacity:1; 
stroke-linecap:round; stroke-linejoin:round;">
</g>
<g style="fill:#FFFFFF; fill-opacity:1.0000; 
stroke:#FFFFFF; stroke-width:0.0000; stroke-opacity:1; 
stroke-linecap:round; stroke-linejoin:round;">
<circle cx="6.4480" cy="27.5500" r="0.4250" /> 
</g>
<g style="fill:#FFFFFF; fill-opacity:1.0000; 
stroke:#FFFFFF; stroke-width:0.0212; stroke-opacity:1; 
stroke-linecap:round; stroke-linejoin:round;">
</g>
<g style="fill:#FFFFFF; fill-opacity:1.0000; 
stroke:#FFFFFF; stroke-width:0.0000; stroke-opacity:1; 
stroke-linecap:round; stroke-linejoin:round;">
<circle cx="2.2480" cy="27.5500" r="0.4250" /> 
</g>
<g style="fill:#FFFFFF; fill-opacity:1.0000; 
stroke:#FFFFFF; stroke-width:0.0212; stroke-opacity:1; 
stroke-linecap:round; stroke-linejoin:round;">
</g>
<g style="fill:#FFFFFF; fill-opacity:1.0000; 
stroke:#FFFFFF; stroke-width:0.0000; stroke-opacity:1; 
stroke-linecap:round; stroke-linejoin:round;">
<circle cx="10.3680" cy="5.5500" r="0.4000" /> 
</g>
<g style="fill:#FFFFFF; fill-opacity:1.0000; 
stroke:#FFFFFF; stroke-width:0.0212; stroke-opacity:1; 
stroke-linecap:round; stroke-linejoin:round;">
</g>
<g style="fill:#FFFFFF; fill-opacity:1.0000; 
stroke:#FFFFFF; stroke-width:0.0000; stroke-opacity:1; 
stroke-linecap:round; stroke-linejoin:round;">
<circle cx="19.0480" cy="3.0500" r="1.1000" /> 
</g>
<g style="fill:#FFFFFF; fill-opacity:1.0000; 
stroke:#FFFFFF; stroke-width:0.0212; stroke-opacity:1; 
stroke-linecap:round; stroke-linejoin:round;">
</g>
<g style="fill:#FFFFFF; fill-opacity:1.0000; 
stroke:#FFFFFF; stroke-width:0.0000; stroke-opacity:1; 
stroke-linecap:round; stroke-linejoin:round;">
<circle cx="3.0480" cy="3.0500" r="1.1000" /> 
</g>
<g style="fill:#FFFFFF; fill-opacity:1.0000; 
stroke:#FFFFFF; stroke-width:0.0212; stroke-opacity:1; 
stroke-linecap:round; stroke-linejoin:round;">
</g>
<g style="fill:#000000; fill-opacity:1.0000; 
stroke:#000000; stroke-width:0.0212; stroke-opacity:1; 
stroke-linecap:round; stroke-linejoin:round;">
</g>
<g style="fill:#D0D2CD; fill-opacity:1.0000; 
stroke:#D0D2CD; stroke-width:0.0212; stroke-opacity:1; 
stroke-linecap:round; stroke-linejoin:round;">
</g>
<g style="fill:#D0D2CD; fill-opacity:1.0000; 
stroke:#D0D2CD; stroke-width:0.1000; stroke-opacity:1; 
stroke-linecap:round; stroke-linejoin:round;">
</g>
<g style="fill:#D0D2CD; fill-opacity:0.0; 
stroke:#D0D2CD; stroke-width:0.1000; stroke-opacity:1; 
stroke-linecap:round; stroke-linejoin:round;">
<path d="M0.0480 2.0500
L0.0480 38.0500
" />
<path d="M2.0480 0.0500 A2.0000 2.0000 0.0 0 0 0.0480 2.0500" />
<path d="M20.0480 0.0500
L2.0480 0.0500
" />
<path d="M2.0480 40.0500
L20.0480 40.0500
" />
<path d="M20.0480 40.0500 A2.0000 2.0000 0.0 0 0 22.0480 38.0500" />
<path d="M22.0480 2.0500 A2.0000 2.0000 0.0 0 0 20.0480 0.0500" />
<path d="M0.0480 38.0500 A2.0000 2.0000 0.0 0 0 2.0480 40.0500" />
<path d="M22.0480 38.0500
L22.0480 2.0500
" />
<g >
</g>
<g >
</g>
<g >
</g>
<g >
</g>
<g >
</g>
<g >
</g>
<g >
</g>
<g >
</g>
<g >
</g>
<g >
</g>
<g >
</g>
<g >
</g>
<g >
</g>
<g >
</g>
<g >
</g>
<g >
</g>
<g >
</g>
<g >
</g>
<g >
</g>
</g> 
</svg>
